<?xml version="1.0" encoding="UTF-8"?>
<svg xmlns="http://www.w3.org/2000/svg" xmlns:xlink="http://www.w3.org/1999/xlink" width="1190.25pt" height="1683.749945pt" viewBox="0 0 1190.25 1683.749945" version="1.2">
<defs>
<clipPath id="clip1">
  <path d="M 48.316406 253.191406 L 1141.390625 253.191406 L 1141.390625 1538.640625 L 48.316406 1538.640625 Z M 48.316406 253.191406 "/>
</clipPath>
<clipPath id="clip2">
  <path d="M 731.019531 1538.640625 L 456.71875 1538.640625 C 215.542969 1538.640625 48.316406 1339.335938 48.316406 1094.140625 L 132.398438 313.257812 C 135.027344 285.242188 164.257812 253.191406 192.457031 253.191406 L 997.246094 253.191406 C 1025.445312 253.191406 1054.679688 285.242188 1057.304688 313.257812 L 1141.390625 1094.140625 C 1141.390625 1334.410156 972.191406 1538.640625 731.019531 1538.640625 Z M 731.019531 1538.640625 "/>
</clipPath>
<clipPath id="clip3">
  <path d="M 731.019531 1538.640625 L 456.71875 1538.640625 C 215.542969 1538.640625 48.316406 1339.335938 48.316406 1094.140625 L 132.398438 313.257812 C 135.027344 285.242188 164.257812 253.191406 192.457031 253.191406 L 997.246094 253.191406 C 1025.445312 253.191406 1054.679688 285.242188 1057.304688 313.257812 L 1141.390625 1094.140625 C 1141.390625 1334.410156 972.191406 1538.640625 731.019531 1538.640625 "/>
</clipPath>
<clipPath id="clip4">
  <path d="M 0.269531 97.015625 L 35.085938 97.015625 L 35.085938 98.234375 L 0.269531 98.234375 Z M 0.269531 98.234375 L 48.316406 98.234375 L 48.316406 99.410156 L 0.269531 99.410156 Z M 0.269531 99.410156 L 57.9375 99.410156 L 57.9375 100.628906 L 0.269531 100.628906 Z M 0.269531 100.628906 L 65.113281 100.628906 L 65.113281 101.800781 L 0.269531 101.800781 Z M 0.269531 101.800781 L 72.339844 101.800781 L 72.339844 103.023438 L 0.269531 103.023438 Z M 0.269531 103.023438 L 78.347656 103.023438 L 78.347656 104.242188 L 0.269531 104.242188 Z M 0.269531 104.242188 L 84.351562 104.242188 L 84.351562 105.414062 L 0.269531 105.414062 Z M 0.269531 105.414062 L 90.359375 105.414062 L 90.359375 106.636719 L 0.269531 106.636719 Z M 0.269531 106.636719 L 95.144531 106.636719 L 95.144531 107.808594 L 0.269531 107.808594 Z M 0.269531 107.808594 L 99.976562 107.808594 L 99.976562 109.027344 L 0.269531 109.027344 Z M 0.269531 109.027344 L 104.761719 109.027344 L 104.761719 110.25 L 0.269531 110.25 Z M 0.269531 110.25 L 109.597656 110.25 L 109.597656 111.421875 L 0.269531 111.421875 Z M 0.269531 111.421875 L 113.164062 111.421875 L 113.164062 112.644531 L 0.269531 112.644531 Z M 0.269531 112.644531 L 116.773438 112.644531 L 116.773438 113.816406 L 0.269531 113.816406 Z M 0.269531 113.816406 L 121.609375 113.816406 L 121.609375 115.035156 L 0.269531 115.035156 Z M 0.269531 115.035156 L 125.175781 115.035156 L 125.175781 116.257812 L 0.269531 116.257812 Z M 0.269531 116.257812 L 128.785156 116.257812 L 128.785156 117.429688 L 0.269531 117.429688 Z M 0.269531 117.429688 L 132.398438 117.429688 L 132.398438 118.648438 L 0.269531 118.648438 Z M 0.269531 118.648438 L 136.011719 118.648438 L 136.011719 119.824219 L 0.269531 119.824219 Z M 0.269531 119.824219 L 138.40625 119.824219 L 138.40625 121.042969 L 0.269531 121.042969 Z M 0.269531 121.042969 L 142.019531 121.042969 L 142.019531 122.261719 L 0.269531 122.261719 Z M 0.269531 122.261719 L 144.410156 122.261719 L 144.410156 123.4375 L 0.269531 123.4375 Z M 0.269531 123.4375 L 148.023438 123.4375 L 148.023438 124.65625 L 0.269531 124.65625 Z M 0.269531 124.65625 L 151.636719 124.65625 L 151.636719 125.828125 L 0.269531 125.828125 Z M 0.269531 125.828125 L 154.03125 125.828125 L 154.03125 127.050781 L 0.269531 127.050781 Z M 0.269531 127.050781 L 156.421875 127.050781 L 156.421875 128.269531 L 0.269531 128.269531 Z M 0.269531 128.269531 L 158.816406 128.269531 L 158.816406 129.441406 L 0.269531 129.441406 Z M 0.269531 129.441406 L 162.429688 129.441406 L 162.429688 130.664062 L 0.269531 130.664062 Z M 0.269531 130.664062 L 164.820312 130.664062 L 164.820312 131.835938 L 0.269531 131.835938 Z M 0.269531 131.835938 L 167.214844 131.835938 L 167.214844 133.054688 L 0.269531 133.054688 Z M 0.269531 133.054688 L 169.65625 133.054688 L 169.65625 134.277344 L 0.269531 134.277344 Z M 0.269531 134.277344 L 172.046875 134.277344 L 172.046875 135.449219 L 0.269531 135.449219 Z M 0.269531 135.449219 L 174.441406 135.449219 L 174.441406 136.667969 L 0.269531 136.667969 Z M 0.269531 136.667969 L 176.832031 136.667969 L 176.832031 137.84375 L 0.269531 137.84375 Z M 0.269531 137.84375 L 179.226562 137.84375 L 179.226562 139.0625 L 0.269531 139.0625 Z M 0.269531 139.0625 L 181.667969 139.0625 L 181.667969 140.28125 L 0.269531 140.28125 Z M 0.269531 140.28125 L 184.058594 140.28125 L 184.058594 141.457031 L 0.269531 141.457031 Z M 0.269531 141.457031 L 186.453125 141.457031 L 186.453125 142.675781 L 0.269531 142.675781 Z M 0.269531 142.675781 L 187.671875 142.675781 L 187.671875 143.851562 L 0.269531 143.851562 Z M 0.269531 143.851562 L 190.066406 143.851562 L 190.066406 145.070312 L 0.269531 145.070312 Z M 0.269531 145.070312 L 192.457031 145.070312 L 192.457031 146.289062 L 0.269531 146.289062 Z M 0.269531 146.289062 L 194.851562 146.289062 L 194.851562 147.464844 L 0.269531 147.464844 Z M 0.269531 147.464844 L 196.070312 147.464844 L 196.070312 148.683594 L 0.269531 148.683594 Z M 0.269531 148.683594 L 198.464844 148.683594 L 198.464844 149.855469 L 0.269531 149.855469 Z M 0.269531 149.855469 L 200.859375 149.855469 L 200.859375 151.078125 L 0.269531 151.078125 Z M 0.269531 151.078125 L 202.078125 151.078125 L 202.078125 152.296875 L 0.269531 152.296875 Z M 0.269531 152.296875 L 204.46875 152.296875 L 204.46875 153.46875 L 0.269531 153.46875 Z M 0.269531 153.46875 L 205.691406 153.46875 L 205.691406 154.691406 L 0.269531 154.691406 Z M 0.269531 154.691406 L 208.082031 154.691406 L 208.082031 155.863281 L 0.269531 155.863281 Z M 0.269531 155.863281 L 209.257812 155.863281 L 209.257812 157.082031 L 0.269531 157.082031 Z M 1.488281 157.082031 L 211.695312 157.082031 L 211.695312 158.304688 L 1.488281 158.304688 Z M 1.488281 158.304688 L 212.871094 158.304688 L 212.871094 159.476562 L 1.488281 159.476562 Z M 1.488281 159.476562 L 214.089844 159.476562 L 214.089844 160.695312 L 1.488281 160.695312 Z M 1.488281 160.695312 L 216.480469 160.695312 L 216.480469 161.871094 L 1.488281 161.871094 Z M 1.488281 161.871094 L 217.703125 161.871094 L 217.703125 163.089844 L 1.488281 163.089844 Z M 1.488281 163.089844 L 220.09375 163.089844 L 220.09375 164.308594 L 1.488281 164.308594 Z M 1.488281 164.308594 L 221.269531 164.308594 L 221.269531 165.484375 L 1.488281 165.484375 Z M 1.488281 165.484375 L 222.488281 165.484375 L 222.488281 166.703125 L 1.488281 166.703125 Z M 1.488281 166.703125 L 223.707031 166.703125 L 223.707031 167.875 L 1.488281 167.875 Z M 1.488281 167.875 L 226.101562 167.875 L 226.101562 169.097656 L 1.488281 169.097656 Z M 1.488281 169.097656 L 227.273438 169.097656 L 227.273438 170.316406 L 1.488281 170.316406 Z M 1.488281 170.316406 L 228.492188 170.316406 L 228.492188 171.488281 L 1.488281 171.488281 Z M 1.488281 171.488281 L 229.714844 171.488281 L 229.714844 172.710938 L 1.488281 172.710938 Z M 1.488281 172.710938 L 232.105469 172.710938 L 232.105469 173.882812 L 1.488281 173.882812 Z M 1.488281 173.882812 L 233.28125 173.882812 L 233.28125 175.105469 L 1.488281 175.105469 Z M 1.488281 175.105469 L 234.5 175.105469 L 234.5 176.324219 L 1.488281 176.324219 Z M 1.488281 176.324219 L 235.71875 176.324219 L 235.71875 177.496094 L 1.488281 177.496094 Z M 1.488281 177.496094 L 236.894531 177.496094 L 236.894531 178.71875 L 1.488281 178.71875 Z M 2.664062 178.71875 L 238.113281 178.71875 L 238.113281 179.890625 L 2.664062 179.890625 Z M 2.664062 179.890625 L 239.285156 179.890625 L 239.285156 181.109375 L 2.664062 181.109375 Z M 2.664062 181.109375 L 240.503906 181.109375 L 240.503906 182.332031 L 2.664062 182.332031 Z M 2.664062 182.332031 L 242.898438 182.332031 L 242.898438 183.503906 L 2.664062 183.503906 Z M 2.664062 183.503906 L 244.117188 183.503906 L 244.117188 184.722656 L 2.664062 184.722656 Z M 2.664062 184.722656 L 245.292969 184.722656 L 245.292969 185.898438 L 2.664062 185.898438 Z M 2.664062 185.898438 L 246.511719 185.898438 L 246.511719 188.335938 L 2.664062 188.335938 Z M 2.664062 188.335938 L 247.730469 188.335938 L 247.730469 189.511719 L 2.664062 189.511719 Z M 2.664062 189.511719 L 248.90625 189.511719 L 248.90625 190.730469 L 2.664062 190.730469 Z M 2.664062 190.730469 L 250.125 190.730469 L 250.125 191.902344 L 2.664062 191.902344 Z M 2.664062 191.902344 L 251.296875 191.902344 L 251.296875 193.125 L 2.664062 193.125 Z M 2.664062 193.125 L 252.515625 193.125 L 252.515625 194.34375 L 2.664062 194.34375 Z M 3.882812 194.34375 L 253.738281 194.34375 L 253.738281 195.515625 L 3.882812 195.515625 Z M 3.882812 195.515625 L 254.910156 195.515625 L 254.910156 196.738281 L 3.882812 196.738281 Z M 3.882812 196.738281 L 256.128906 196.738281 L 256.128906 197.910156 L 3.882812 197.910156 Z M 3.882812 197.910156 L 257.304688 197.910156 L 257.304688 199.128906 L 3.882812 199.128906 Z M 3.882812 199.128906 L 258.523438 199.128906 L 258.523438 201.523438 L 3.882812 201.523438 Z M 3.882812 201.523438 L 259.742188 201.523438 L 259.742188 202.742188 L 3.882812 202.742188 Z M 3.882812 202.742188 L 260.917969 202.742188 L 260.917969 203.917969 L 3.882812 203.917969 Z M 3.882812 203.917969 L 262.136719 203.917969 L 262.136719 205.136719 L 3.882812 205.136719 Z M 5.054688 205.136719 L 263.308594 205.136719 L 263.308594 206.359375 L 5.054688 206.359375 Z M 5.054688 206.359375 L 264.527344 206.359375 L 264.527344 208.75 L 5.054688 208.75 Z M 5.054688 208.75 L 265.75 208.75 L 265.75 209.925781 L 5.054688 209.925781 Z M 5.054688 209.925781 L 266.921875 209.925781 L 266.921875 212.363281 L 5.054688 212.363281 Z M 5.054688 212.363281 L 268.140625 212.363281 L 268.140625 213.539062 L 5.054688 213.539062 Z M 5.054688 213.539062 L 269.316406 213.539062 L 269.316406 214.757812 L 5.054688 214.757812 Z M 6.277344 214.757812 L 270.535156 214.757812 L 270.535156 217.152344 L 6.277344 217.152344 Z M 6.277344 217.152344 L 271.753906 217.152344 L 271.753906 218.371094 L 6.277344 218.371094 Z M 6.277344 218.371094 L 272.929688 218.371094 L 272.929688 220.765625 L 6.277344 220.765625 Z M 6.277344 220.765625 L 274.148438 220.765625 L 274.148438 223.15625 L 6.277344 223.15625 Z M 6.277344 223.15625 L 275.320312 223.15625 L 275.320312 224.378906 L 6.277344 224.378906 Z M 6.277344 224.378906 L 276.542969 224.378906 L 276.542969 225.550781 L 6.277344 225.550781 Z M 7.496094 225.550781 L 276.542969 225.550781 L 276.542969 226.769531 L 7.496094 226.769531 Z M 7.496094 226.769531 L 277.761719 226.769531 L 277.761719 229.164062 L 7.496094 229.164062 Z M 7.496094 229.164062 L 278.933594 229.164062 L 278.933594 230.382812 L 7.496094 230.382812 Z M 7.496094 230.382812 L 280.152344 230.382812 L 280.152344 232.777344 L 7.496094 232.777344 Z M 7.496094 232.777344 L 281.328125 232.777344 L 281.328125 233.949219 L 7.496094 233.949219 Z M 8.667969 233.949219 L 281.328125 233.949219 L 281.328125 235.171875 L 8.667969 235.171875 Z M 8.667969 235.171875 L 282.546875 235.171875 L 282.546875 237.566406 L 8.667969 237.566406 Z M 8.667969 237.566406 L 283.765625 237.566406 L 283.765625 239.957031 L 8.667969 239.957031 Z M 9.890625 239.957031 L 284.941406 239.957031 L 284.941406 242.398438 L 9.890625 242.398438 Z M 9.890625 242.398438 L 286.160156 242.398438 L 286.160156 244.792969 L 9.890625 244.792969 Z M 9.890625 244.792969 L 287.332031 244.792969 L 287.332031 245.964844 L 9.890625 245.964844 Z M 11.0625 245.964844 L 287.332031 245.964844 L 287.332031 248.40625 L 11.0625 248.40625 Z M 11.0625 248.40625 L 288.554688 248.40625 L 288.554688 251.972656 L 11.0625 251.972656 Z M 11.0625 251.972656 L 289.773438 251.972656 L 289.773438 253.191406 L 11.0625 253.191406 Z M 12.28125 253.191406 L 289.773438 253.191406 L 289.773438 254.410156 L 12.28125 254.410156 Z M 12.28125 254.410156 L 290.945312 254.410156 L 290.945312 257.976562 L 12.28125 257.976562 Z M 12.28125 257.976562 L 292.164062 257.976562 L 292.164062 259.199219 L 12.28125 259.199219 Z M 13.5 259.199219 L 292.164062 259.199219 L 292.164062 261.589844 L 13.5 261.589844 Z M 13.5 261.589844 L 293.339844 261.589844 L 293.339844 265.207031 L 13.5 265.207031 Z M 14.675781 265.207031 L 294.558594 265.207031 L 294.558594 269.992188 L 14.675781 269.992188 Z M 15.894531 269.992188 L 295.777344 269.992188 L 295.777344 273.605469 L 15.894531 273.605469 Z M 15.894531 273.605469 L 296.953125 273.605469 L 296.953125 274.824219 L 15.894531 274.824219 Z M 17.066406 274.824219 L 296.953125 274.824219 L 296.953125 279.613281 L 17.066406 279.613281 Z M 18.289062 279.613281 L 298.171875 279.613281 L 298.171875 283.226562 L 18.289062 283.226562 Z M 19.507812 283.226562 L 298.171875 283.226562 L 298.171875 286.839844 L 19.507812 286.839844 Z M 19.507812 286.839844 L 299.34375 286.839844 L 299.34375 288.011719 L 19.507812 288.011719 Z M 20.679688 288.011719 L 299.34375 288.011719 L 299.34375 291.625 L 20.679688 291.625 Z M 21.902344 291.625 L 299.34375 291.625 L 299.34375 295.238281 L 21.902344 295.238281 Z M 21.902344 295.238281 L 300.566406 295.238281 L 300.566406 296.460938 L 21.902344 296.460938 Z M 23.074219 296.460938 L 300.566406 296.460938 L 300.566406 301.246094 L 23.074219 301.246094 Z M 24.292969 301.246094 L 300.566406 301.246094 L 300.566406 303.640625 L 24.292969 303.640625 Z M 25.515625 303.640625 L 300.566406 303.640625 L 300.566406 307.253906 L 25.515625 307.253906 Z M 26.6875 307.253906 L 301 307.253906 L 301 309.644531 L 26.6875 309.644531 Z M 27.90625 309.644531 L 301 309.644531 L 301 313.257812 L 27.90625 313.257812 Z M 29.078125 313.257812 L 301 313.257812 L 301 316.871094 L 29.078125 316.871094 Z M 30.300781 316.871094 L 301 316.871094 L 301 319.265625 L 30.300781 319.265625 Z M 31.519531 319.265625 L 301 319.265625 L 301 322.878906 L 31.519531 322.878906 Z M 32.691406 322.878906 L 301 322.878906 L 301 325.273438 L 32.691406 325.273438 Z M 33.914062 325.273438 L 301 325.273438 L 301 327.667969 L 33.914062 327.667969 Z M 33.914062 327.667969 L 300.566406 327.667969 L 300.566406 328.886719 L 33.914062 328.886719 Z M 35.085938 328.886719 L 300.566406 328.886719 L 300.566406 331.28125 L 35.085938 331.28125 Z M 36.304688 331.28125 L 300.566406 331.28125 L 300.566406 333.671875 L 36.304688 333.671875 Z M 37.527344 333.671875 L 300.566406 333.671875 L 300.566406 336.066406 L 37.527344 336.066406 Z M 38.699219 336.066406 L 300.566406 336.066406 L 300.566406 338.507812 L 38.699219 338.507812 Z M 39.917969 338.507812 L 300.566406 338.507812 L 300.566406 340.898438 L 39.917969 340.898438 Z M 41.089844 340.898438 L 300.566406 340.898438 L 300.566406 342.074219 L 41.089844 342.074219 Z M 41.089844 342.074219 L 299.34375 342.074219 L 299.34375 343.292969 L 41.089844 343.292969 Z M 42.3125 343.292969 L 299.34375 343.292969 L 299.34375 344.511719 L 42.3125 344.511719 Z M 43.53125 344.511719 L 299.34375 344.511719 L 299.34375 346.90625 L 43.53125 346.90625 Z M 44.703125 346.90625 L 299.34375 346.90625 L 299.34375 349.300781 L 44.703125 349.300781 Z M 45.925781 349.300781 L 299.34375 349.300781 L 299.34375 350.519531 L 45.925781 350.519531 Z M 45.925781 350.519531 L 298.171875 350.519531 L 298.171875 351.691406 L 45.925781 351.691406 Z M 47.097656 351.691406 L 298.171875 351.691406 L 298.171875 354.085938 L 47.097656 354.085938 Z M 48.316406 354.085938 L 298.171875 354.085938 L 298.171875 356.527344 L 48.316406 356.527344 Z M 49.539062 356.527344 L 298.171875 356.527344 L 298.171875 357.699219 L 49.539062 357.699219 Z M 50.710938 357.699219 L 296.953125 357.699219 L 296.953125 360.09375 L 50.710938 360.09375 Z M 51.929688 360.09375 L 296.953125 360.09375 L 296.953125 361.3125 L 51.929688 361.3125 Z M 53.101562 361.3125 L 296.953125 361.3125 L 296.953125 362.535156 L 53.101562 362.535156 Z M 54.324219 362.535156 L 296.953125 362.535156 L 296.953125 363.707031 L 54.324219 363.707031 Z M 54.324219 363.707031 L 295.777344 363.707031 L 295.777344 364.925781 L 54.324219 364.925781 Z M 55.542969 364.925781 L 295.777344 364.925781 L 295.777344 366.101562 L 55.542969 366.101562 Z M 56.714844 366.101562 L 295.777344 366.101562 L 295.777344 368.539062 L 56.714844 368.539062 Z M 57.9375 368.539062 L 294.558594 368.539062 L 294.558594 369.714844 L 57.9375 369.714844 Z M 59.109375 369.714844 L 294.558594 369.714844 L 294.558594 370.933594 L 59.109375 370.933594 Z M 60.328125 370.933594 L 294.558594 370.933594 L 294.558594 373.328125 L 60.328125 373.328125 Z M 61.550781 373.328125 L 293.339844 373.328125 L 293.339844 374.546875 L 61.550781 374.546875 Z M 62.722656 374.546875 L 293.339844 374.546875 L 293.339844 376.941406 L 62.722656 376.941406 Z M 63.941406 376.941406 L 293.339844 376.941406 L 293.339844 378.113281 L 63.941406 378.113281 Z M 65.113281 378.113281 L 292.164062 378.113281 L 292.164062 379.332031 L 65.113281 379.332031 Z M 66.335938 379.332031 L 292.164062 379.332031 L 292.164062 380.554688 L 66.335938 380.554688 Z M 67.554688 380.554688 L 292.164062 380.554688 L 292.164062 381.726562 L 67.554688 381.726562 Z M 68.726562 381.726562 L 292.164062 381.726562 L 292.164062 382.945312 L 68.726562 382.945312 Z M 69.949219 382.945312 L 290.945312 382.945312 L 290.945312 384.121094 L 69.949219 384.121094 Z M 71.121094 384.121094 L 290.945312 384.121094 L 290.945312 385.339844 L 71.121094 385.339844 Z M 72.339844 385.339844 L 290.945312 385.339844 L 290.945312 386.5625 L 72.339844 386.5625 Z M 73.5625 386.5625 L 289.773438 386.5625 L 289.773438 387.734375 L 73.5625 387.734375 Z M 74.734375 387.734375 L 289.773438 387.734375 L 289.773438 388.953125 L 74.734375 388.953125 Z M 75.953125 388.953125 L 289.773438 388.953125 L 289.773438 390.128906 L 75.953125 390.128906 Z M 77.125 390.128906 L 288.554688 390.128906 L 288.554688 391.347656 L 77.125 391.347656 Z M 78.347656 391.347656 L 288.554688 391.347656 L 288.554688 392.566406 L 78.347656 392.566406 Z M 79.566406 392.566406 L 288.554688 392.566406 L 288.554688 393.742188 L 79.566406 393.742188 Z M 80.738281 393.742188 L 287.332031 393.742188 L 287.332031 394.960938 L 80.738281 394.960938 Z M 81.960938 394.960938 L 287.332031 394.960938 L 287.332031 396.132812 L 81.960938 396.132812 Z M 83.132812 396.132812 L 287.332031 396.132812 L 287.332031 397.355469 L 83.132812 397.355469 Z M 84.351562 397.355469 L 286.160156 397.355469 L 286.160156 398.574219 L 84.351562 398.574219 Z M 86.746094 398.574219 L 286.160156 398.574219 L 286.160156 399.746094 L 86.746094 399.746094 Z M 87.964844 399.746094 L 286.160156 399.746094 L 286.160156 400.96875 L 87.964844 400.96875 Z M 89.136719 400.96875 L 284.941406 400.96875 L 284.941406 402.140625 L 89.136719 402.140625 Z M 91.578125 402.140625 L 284.941406 402.140625 L 284.941406 403.359375 L 91.578125 403.359375 Z M 92.75 403.359375 L 284.941406 403.359375 L 284.941406 404.582031 L 92.75 404.582031 Z M 93.972656 404.582031 L 283.765625 404.582031 L 283.765625 405.753906 L 93.972656 405.753906 Z M 96.363281 405.753906 L 283.765625 405.753906 L 283.765625 406.972656 L 96.363281 406.972656 Z M 97.585938 406.972656 L 283.765625 406.972656 L 283.765625 408.148438 L 97.585938 408.148438 Z M 99.976562 408.148438 L 282.546875 408.148438 L 282.546875 409.367188 L 99.976562 409.367188 Z M 101.148438 409.367188 L 282.546875 409.367188 L 282.546875 410.585938 L 101.148438 410.585938 Z M 102.371094 410.585938 L 281.328125 410.585938 L 281.328125 411.761719 L 102.371094 411.761719 Z M 104.761719 411.761719 L 281.328125 411.761719 L 281.328125 412.980469 L 104.761719 412.980469 Z M 107.15625 412.980469 L 281.328125 412.980469 L 281.328125 414.152344 L 107.15625 414.152344 Z M 109.597656 414.152344 L 280.152344 414.152344 L 280.152344 415.375 L 109.597656 415.375 Z M 111.988281 415.375 L 280.152344 415.375 L 280.152344 416.59375 L 111.988281 416.59375 Z M 114.382812 416.59375 L 278.933594 416.59375 L 278.933594 417.769531 L 114.382812 417.769531 Z M 117.996094 417.769531 L 278.933594 417.769531 L 278.933594 418.988281 L 117.996094 418.988281 Z M 120.386719 418.988281 L 278.933594 418.988281 L 278.933594 420.160156 L 120.386719 420.160156 Z M 122.78125 420.160156 L 277.761719 420.160156 L 277.761719 421.382812 L 122.78125 421.382812 Z M 125.175781 421.382812 L 277.761719 421.382812 L 277.761719 422.601562 L 125.175781 422.601562 Z M 127.613281 422.601562 L 272.929688 422.601562 L 272.929688 423.773438 L 127.613281 423.773438 Z M 132.398438 423.773438 L 268.140625 423.773438 L 268.140625 424.996094 L 132.398438 424.996094 Z M 136.011719 424.996094 L 262.136719 424.996094 L 262.136719 426.167969 L 136.011719 426.167969 Z M 140.796875 426.167969 L 256.128906 426.167969 L 256.128906 427.386719 L 140.796875 427.386719 Z M 144.410156 427.386719 L 251.296875 427.386719 L 251.296875 428.609375 L 144.410156 428.609375 Z M 148.023438 428.609375 L 245.292969 428.609375 L 245.292969 429.78125 L 148.023438 429.78125 Z M 154.03125 429.78125 L 236.894531 429.78125 L 236.894531 431 L 154.03125 431 Z M 163.648438 431 L 226.101562 431 L 226.101562 432.175781 L 163.648438 432.175781 Z M 172.046875 432.175781 L 216.480469 432.175781 L 216.480469 433.394531 L 172.046875 433.394531 Z M 172.046875 432.175781 "/>
</clipPath>
<clipPath id="clip5">
  <path d="M 0.363281 97.109375 C -3.296875 362.441406 85.195312 472.109375 276.636719 421.476562 C 375.683594 196.738281 147.835938 93.589844 0.363281 97.109375 Z M 0.363281 97.109375 "/>
</clipPath>
<linearGradient id="linear0" gradientUnits="userSpaceOnUse" x1="0.217884" y1="0" x2="1.300474" y2="0" gradientTransform="matrix(278.512244,0,0,278.552998,-60.413302,265.253083)">
<stop offset="0" style="stop-color:rgb(48.199463%,54.899597%,0%);stop-opacity:1;"/>
<stop offset="0.03125" style="stop-color:rgb(48.197937%,54.898071%,0%);stop-opacity:1;"/>
<stop offset="0.046875" style="stop-color:rgb(48.098755%,54.798889%,0%);stop-opacity:1;"/>
<stop offset="0.0625" style="stop-color:rgb(47.903442%,54.603577%,0%);stop-opacity:1;"/>
<stop offset="0.09375" style="stop-color:rgb(47.802734%,54.502869%,0%);stop-opacity:1;"/>
<stop offset="0.109375" style="stop-color:rgb(47.724915%,54.400635%,0%);stop-opacity:1;"/>
<stop offset="0.125" style="stop-color:rgb(47.573853%,54.200745%,0%);stop-opacity:1;"/>
<stop offset="0.140625" style="stop-color:rgb(47.398376%,54.098511%,0%);stop-opacity:1;"/>
<stop offset="0.15625" style="stop-color:rgb(47.198486%,54.096985%,0%);stop-opacity:1;"/>
<stop offset="0.171875" style="stop-color:rgb(47.099304%,53.999329%,0%);stop-opacity:1;"/>
<stop offset="0.1875" style="stop-color:rgb(47.099304%,53.80249%,0%);stop-opacity:1;"/>
<stop offset="0.203125" style="stop-color:rgb(47.001648%,53.701782%,0%);stop-opacity:1;"/>
<stop offset="0.21875" style="stop-color:rgb(46.803284%,53.69873%,0%);stop-opacity:1;"/>
<stop offset="0.234375" style="stop-color:rgb(46.601868%,53.599548%,0%);stop-opacity:1;"/>
<stop offset="0.25" style="stop-color:rgb(46.398926%,53.399658%,0%);stop-opacity:1;"/>
<stop offset="0.265625" style="stop-color:rgb(46.19751%,53.198242%,0%);stop-opacity:1;"/>
<stop offset="0.28125" style="stop-color:rgb(45.99762%,52.998352%,0%);stop-opacity:1;"/>
<stop offset="0.3125" style="stop-color:rgb(45.899963%,52.89917%,0%);stop-opacity:1;"/>
<stop offset="0.328125" style="stop-color:rgb(45.800781%,52.801514%,0%);stop-opacity:1;"/>
<stop offset="0.34375" style="stop-color:rgb(45.602417%,52.601624%,0%);stop-opacity:1;"/>
<stop offset="0.359375" style="stop-color:rgb(45.401001%,52.49939%,0%);stop-opacity:1;"/>
<stop offset="0.375" style="stop-color:rgb(45.199585%,52.497864%,0%);stop-opacity:1;"/>
<stop offset="0.40625" style="stop-color:rgb(45.095825%,52.348328%,0%);stop-opacity:1;"/>
<stop offset="0.4375" style="stop-color:rgb(44.898987%,52.198792%,0%);stop-opacity:1;"/>
<stop offset="0.453125" style="stop-color:rgb(44.602966%,52.099609%,0%);stop-opacity:1;"/>
<stop offset="0.46875" style="stop-color:rgb(44.40155%,51.901245%,0%);stop-opacity:1;"/>
<stop offset="0.484375" style="stop-color:rgb(44.200134%,51.699829%,0%);stop-opacity:1;"/>
<stop offset="0.5" style="stop-color:rgb(43.998718%,51.498413%,0%);stop-opacity:1;"/>
<stop offset="0.53125" style="stop-color:rgb(43.896484%,51.396179%,0%);stop-opacity:1;"/>
<stop offset="0.5625" style="stop-color:rgb(43.69812%,51.197815%,0%);stop-opacity:1;"/>
<stop offset="0.578125" style="stop-color:rgb(43.4021%,51.000977%,0%);stop-opacity:1;"/>
<stop offset="0.59375" style="stop-color:rgb(43.200684%,50.999451%,0%);stop-opacity:1;"/>
<stop offset="0.609375" style="stop-color:rgb(43.099976%,50.898743%,0%);stop-opacity:1;"/>
<stop offset="0.625" style="stop-color:rgb(43.09845%,50.698853%,0%);stop-opacity:1;"/>
<stop offset="0.640625" style="stop-color:rgb(42.99469%,50.59967%,0%);stop-opacity:1;"/>
<stop offset="0.65625" style="stop-color:rgb(42.793274%,50.596619%,0%);stop-opacity:1;"/>
<stop offset="0.671875" style="stop-color:rgb(42.62085%,50.495911%,0%);stop-opacity:1;"/>
<stop offset="0.6875" style="stop-color:rgb(42.474365%,50.299072%,0%);stop-opacity:1;"/>
<stop offset="0.71875" style="stop-color:rgb(42.300415%,50.099182%,0%);stop-opacity:1;"/>
<stop offset="0.75" style="stop-color:rgb(42.098999%,49.897766%,0%);stop-opacity:1;"/>
<stop offset="1" style="stop-color:rgb(41.999817%,49.798584%,0%);stop-opacity:1;"/>
</linearGradient>
<clipPath id="clip6">
  <path d="M 72.339844 181.109375 L 283 181.109375 L 283 425 L 72.339844 425 Z M 72.339844 181.109375 "/>
</clipPath>
<clipPath id="clip7">
  <path d="M 264.246094 424.476562 C 268.375 423.492188 272.457031 422.554688 276.636719 421.476562 C 278.699219 416.828125 280.386719 412.371094 282.125 407.867188 C 220.234375 312.601562 98.148438 189.933594 92.84375 184.628906 C 88.152344 179.9375 80.550781 179.9375 75.859375 184.628906 C 71.167969 189.324219 71.167969 196.925781 75.859375 201.617188 C 77.125 202.886719 204.515625 330.855469 264.246094 424.476562 Z M 264.246094 424.476562 "/>
</clipPath>
<clipPath id="clip8">
  <path d="M 264.246094 424.476562 C 268.375 423.492188 272.457031 422.554688 276.636719 421.476562 C 278.699219 416.828125 280.386719 412.371094 282.125 407.867188 C 220.234375 312.601562 98.148438 189.933594 92.84375 184.628906 C 88.152344 179.9375 80.550781 179.9375 75.859375 184.628906 C 71.167969 189.324219 71.167969 196.925781 75.859375 201.617188 C 77.125 202.886719 204.515625 330.855469 264.246094 424.476562 "/>
</clipPath>
<clipPath id="clip9">
  <path d="M 212.492188 80.683594 L -43.835938 260.699219 L 140.84375 523.683594 L 397.128906 343.714844 Z M 212.492188 80.683594 "/>
</clipPath>
<linearGradient id="linear1" gradientUnits="userSpaceOnUse" x1="0.169584" y1="0" x2="0.964069" y2="0" gradientTransform="matrix(231.228189,329.370157,-329.321968,231.262027,46.520385,115.850025)">
<stop offset="0" style="stop-color:rgb(65.098572%,69.287109%,29.798889%);stop-opacity:1;"/>
<stop offset="0.015625" style="stop-color:rgb(65.098572%,69.142151%,29.743958%);stop-opacity:1;"/>
<stop offset="0.0234375" style="stop-color:rgb(65.098572%,68.998718%,29.586792%);stop-opacity:1;"/>
<stop offset="0.03125" style="stop-color:rgb(65.040588%,68.998718%,29.38385%);stop-opacity:1;"/>
<stop offset="0.0625" style="stop-color:rgb(64.840698%,68.948364%,29.092407%);stop-opacity:1;"/>
<stop offset="0.078125" style="stop-color:rgb(64.645386%,68.748474%,28.749084%);stop-opacity:1;"/>
<stop offset="0.09375" style="stop-color:rgb(64.445496%,68.598938%,28.547668%);stop-opacity:1;"/>
<stop offset="0.101562" style="stop-color:rgb(64.299011%,68.598938%,28.393555%);stop-opacity:1;"/>
<stop offset="0.109375" style="stop-color:rgb(64.299011%,68.598938%,28.189087%);stop-opacity:1;"/>
<stop offset="0.125" style="stop-color:rgb(64.250183%,68.55011%,27.944946%);stop-opacity:1;"/>
<stop offset="0.140625" style="stop-color:rgb(64.050293%,68.35022%,27.764893%);stop-opacity:1;"/>
<stop offset="0.15625" style="stop-color:rgb(63.899231%,68.199158%,27.563477%);stop-opacity:1;"/>
<stop offset="0.1875" style="stop-color:rgb(63.856506%,68.156433%,27.204895%);stop-opacity:1;"/>
<stop offset="0.203125" style="stop-color:rgb(63.656616%,67.956543%,26.856995%);stop-opacity:1;"/>
<stop offset="0.21875" style="stop-color:rgb(63.499451%,67.799377%,26.655579%);stop-opacity:1;"/>
<stop offset="0.226562" style="stop-color:rgb(63.499451%,67.799377%,26.507568%);stop-opacity:1;"/>
<stop offset="0.234375" style="stop-color:rgb(63.450623%,67.762756%,26.303101%);stop-opacity:1;"/>
<stop offset="0.25" style="stop-color:rgb(63.250732%,67.61322%,26.051331%);stop-opacity:1;"/>
<stop offset="0.265625" style="stop-color:rgb(63.09967%,67.498779%,25.85907%);stop-opacity:1;"/>
<stop offset="0.28125" style="stop-color:rgb(63.05542%,67.498779%,25.65918%);stop-opacity:1;"/>
<stop offset="0.296875" style="stop-color:rgb(62.85553%,67.460632%,25.460815%);stop-opacity:1;"/>
<stop offset="0.304687" style="stop-color:rgb(62.69989%,67.324829%,25.325012%);stop-opacity:1;"/>
<stop offset="0.3125" style="stop-color:rgb(62.69989%,67.163086%,25.128174%);stop-opacity:1;"/>
<stop offset="0.328125" style="stop-color:rgb(62.69989%,67.098999%,24.864197%);stop-opacity:1;"/>
<stop offset="0.34375" style="stop-color:rgb(62.672424%,67.098999%,24.662781%);stop-opacity:1;"/>
<stop offset="0.359375" style="stop-color:rgb(62.521362%,67.0578%,24.462891%);stop-opacity:1;"/>
<stop offset="0.375" style="stop-color:rgb(62.399292%,66.85791%,24.263%);stop-opacity:1;"/>
<stop offset="0.382812" style="stop-color:rgb(62.399292%,66.699219%,24.130249%);stop-opacity:1;"/>
<stop offset="0.390625" style="stop-color:rgb(62.367249%,66.699219%,23.934937%);stop-opacity:1;"/>
<stop offset="0.40625" style="stop-color:rgb(62.167358%,66.699219%,23.666382%);stop-opacity:1;"/>
<stop offset="0.421875" style="stop-color:rgb(61.999512%,66.667175%,23.466492%);stop-opacity:1;"/>
<stop offset="0.429687" style="stop-color:rgb(61.999512%,66.539001%,23.338318%);stop-opacity:1;"/>
<stop offset="0.4375" style="stop-color:rgb(61.972046%,66.369629%,23.143005%);stop-opacity:1;"/>
<stop offset="0.46875" style="stop-color:rgb(61.772156%,66.299438%,22.850037%);stop-opacity:1;"/>
<stop offset="0.484375" style="stop-color:rgb(61.599731%,66.264343%,22.528076%);stop-opacity:1;"/>
<stop offset="0.5" style="stop-color:rgb(61.57074%,66.064453%,22.370911%);stop-opacity:1;"/>
<stop offset="0.507812" style="stop-color:rgb(61.444092%,65.899658%,22.244263%);stop-opacity:1;"/>
<stop offset="0.515625" style="stop-color:rgb(61.273193%,65.899658%,22.04895%);stop-opacity:1;"/>
<stop offset="0.53125" style="stop-color:rgb(61.199951%,65.869141%,21.774292%);stop-opacity:1;"/>
<stop offset="0.546875" style="stop-color:rgb(61.174011%,65.66925%,21.574402%);stop-opacity:1;"/>
<stop offset="0.5625" style="stop-color:rgb(60.974121%,65.499878%,21.374512%);stop-opacity:1;"/>
<stop offset="0.578125" style="stop-color:rgb(60.798645%,65.499878%,21.173096%);stop-opacity:1;"/>
<stop offset="0.59375" style="stop-color:rgb(60.777283%,65.47699%,20.951843%);stop-opacity:1;"/>
<stop offset="0.609375" style="stop-color:rgb(60.577393%,65.2771%,20.578003%);stop-opacity:1;"/>
<stop offset="0.625" style="stop-color:rgb(60.398865%,65.098572%,20.376587%);stop-opacity:1;"/>
<stop offset="0.640625" style="stop-color:rgb(60.398865%,65.098572%,20.176697%);stop-opacity:1;"/>
<stop offset="0.65625" style="stop-color:rgb(60.375977%,65.075684%,19.975281%);stop-opacity:1;"/>
<stop offset="0.671875" style="stop-color:rgb(60.176086%,64.875793%,19.758606%);stop-opacity:1;"/>
<stop offset="0.6875" style="stop-color:rgb(59.999084%,64.698792%,19.381714%);stop-opacity:1;"/>
<stop offset="0.703125" style="stop-color:rgb(59.979248%,64.698792%,19.180298%);stop-opacity:1;"/>
<stop offset="0.710938" style="stop-color:rgb(59.863281%,64.698792%,19.064331%);stop-opacity:1;"/>
<stop offset="0.71875" style="stop-color:rgb(59.683228%,64.683533%,18.867493%);stop-opacity:1;"/>
<stop offset="0.734375" style="stop-color:rgb(59.599304%,64.483643%,18.583679%);stop-opacity:1;"/>
<stop offset="0.75" style="stop-color:rgb(59.584045%,64.299011%,18.383789%);stop-opacity:1;"/>
<stop offset="0.765625" style="stop-color:rgb(59.384155%,64.299011%,18.183899%);stop-opacity:1;"/>
<stop offset="0.78125" style="stop-color:rgb(59.199524%,64.282227%,17.982483%);stop-opacity:1;"/>
<stop offset="0.796875" style="stop-color:rgb(59.199524%,64.082336%,17.774963%);stop-opacity:1;"/>
<stop offset="0.8125" style="stop-color:rgb(59.19342%,63.899231%,17.440796%);stop-opacity:1;"/>
<stop offset="0.828125" style="stop-color:rgb(58.99353%,63.899231%,17.286682%);stop-opacity:1;"/>
<stop offset="0.84375" style="stop-color:rgb(58.799744%,63.891602%,17.086792%);stop-opacity:1;"/>
<stop offset="0.859375" style="stop-color:rgb(58.786011%,63.691711%,16.885376%);stop-opacity:1;"/>
<stop offset="0.875" style="stop-color:rgb(58.586121%,63.499451%,16.676331%);stop-opacity:1;"/>
<stop offset="0.890625" style="stop-color:rgb(58.399963%,63.496399%,16.290283%);stop-opacity:1;"/>
<stop offset="0.898438" style="stop-color:rgb(58.399963%,63.389587%,16.099548%);stop-opacity:1;"/>
<stop offset="0.90625" style="stop-color:rgb(58.399963%,63.192749%,16.090393%);stop-opacity:1;"/>
<stop offset="0.921875" style="stop-color:rgb(58.395386%,63.09967%,15.890503%);stop-opacity:1;"/>
<stop offset="0.9375" style="stop-color:rgb(58.197021%,63.09967%,15.699768%);stop-opacity:1;"/>
<stop offset="0.945312" style="stop-color:rgb(58.000183%,63.09967%,15.597534%);stop-opacity:1;"/>
<stop offset="0.953125" style="stop-color:rgb(57.998657%,63.093567%,15.391541%);stop-opacity:1;"/>
<stop offset="0.96875" style="stop-color:rgb(57.998657%,62.893677%,15.093994%);stop-opacity:1;"/>
<stop offset="0.976562" style="stop-color:rgb(57.894897%,62.69989%,14.898682%);stop-opacity:1;"/>
<stop offset="0.984375" style="stop-color:rgb(57.695007%,62.69989%,14.892578%);stop-opacity:1;"/>
<stop offset="1" style="stop-color:rgb(57.598877%,62.69989%,14.692688%);stop-opacity:1;"/>
</linearGradient>
<clipPath id="clip10">
  <path d="M 48.316406 487 L 1141.390625 487 L 1141.390625 1538.640625 L 48.316406 1538.640625 Z M 48.316406 487 "/>
</clipPath>
<clipPath id="clip11">
  <path d="M 588.847656 553.53125 C 389.246094 616.601562 183.402344 552.683594 114.476562 487.550781 L 48.316406 1094.140625 C 48.316406 1339.335938 215.542969 1538.640625 456.71875 1538.640625 L 731.019531 1538.640625 C 972.191406 1538.640625 1141.390625 1334.410156 1141.390625 1094.140625 L 1078.234375 516.410156 C 953.515625 468.730469 750.019531 502.613281 588.847656 553.53125 Z M 588.847656 553.53125 "/>
</clipPath>
<clipPath id="clip12">
  <path d="M 588.847656 553.53125 C 389.246094 616.601562 183.402344 552.683594 114.476562 487.550781 L 48.316406 1094.140625 C 48.316406 1339.335938 215.542969 1538.640625 456.71875 1538.640625 L 731.019531 1538.640625 C 972.191406 1538.640625 1141.390625 1334.410156 1141.390625 1094.140625 L 1078.234375 516.410156 C 953.515625 468.730469 750.019531 502.613281 588.847656 553.53125 "/>
</clipPath>
<linearGradient id="linear2" gradientUnits="userSpaceOnUse" x1="0.149366" y1="0" x2="1.229835" y2="0" gradientTransform="matrix(1011.66429,0,0,1011.812267,-102.79085,1013.095573)">
<stop offset="0" style="stop-color:rgb(85.499573%,25.898743%,29.394531%);stop-opacity:1;"/>
<stop offset="0.015625" style="stop-color:rgb(85.499573%,25.898743%,29.293823%);stop-opacity:1;"/>
<stop offset="0.03125" style="stop-color:rgb(85.494995%,25.895691%,29.092407%);stop-opacity:1;"/>
<stop offset="0.0625" style="stop-color:rgb(85.296631%,25.697327%,28.796387%);stop-opacity:1;"/>
<stop offset="0.078125" style="stop-color:rgb(85.00061%,25.401306%,28.599548%);stop-opacity:1;"/>
<stop offset="0.09375" style="stop-color:rgb(84.799194%,25.19989%,28.598022%);stop-opacity:1;"/>
<stop offset="0.109375" style="stop-color:rgb(84.597778%,25.099182%,28.497314%);stop-opacity:1;"/>
<stop offset="0.125" style="stop-color:rgb(84.397888%,25.097656%,28.295898%);stop-opacity:1;"/>
<stop offset="0.140625" style="stop-color:rgb(84.298706%,24.995422%,28.094482%);stop-opacity:1;"/>
<stop offset="0.15625" style="stop-color:rgb(84.295654%,24.794006%,27.893066%);stop-opacity:1;"/>
<stop offset="0.1875" style="stop-color:rgb(84.09729%,24.497986%,27.6474%);stop-opacity:1;"/>
<stop offset="0.203125" style="stop-color:rgb(83.80127%,24.201965%,27.49939%);stop-opacity:1;"/>
<stop offset="0.21875" style="stop-color:rgb(83.599854%,24.000549%,27.49939%);stop-opacity:1;"/>
<stop offset="0.234375" style="stop-color:rgb(83.499146%,23.799133%,27.398682%);stop-opacity:1;"/>
<stop offset="0.25" style="stop-color:rgb(83.49762%,23.597717%,27.197266%);stop-opacity:1;"/>
<stop offset="0.265625" style="stop-color:rgb(83.395386%,23.498535%,26.99585%);stop-opacity:1;"/>
<stop offset="0.28125" style="stop-color:rgb(83.19397%,23.495483%,26.794434%);stop-opacity:1;"/>
<stop offset="0.3125" style="stop-color:rgb(82.897949%,23.298645%,26.498413%);stop-opacity:1;"/>
<stop offset="0.328125" style="stop-color:rgb(82.626343%,23.002625%,26.202393%);stop-opacity:1;"/>
<stop offset="0.34375" style="stop-color:rgb(82.475281%,22.801208%,26.000977%);stop-opacity:1;"/>
<stop offset="0.375" style="stop-color:rgb(82.398987%,22.547913%,25.898743%);stop-opacity:1;"/>
<stop offset="0.390625" style="stop-color:rgb(82.296753%,22.296143%,25.796509%);stop-opacity:1;"/>
<stop offset="0.40625" style="stop-color:rgb(82.095337%,22.094727%,25.595093%);stop-opacity:1;"/>
<stop offset="0.4375" style="stop-color:rgb(81.799316%,21.798706%,25.299072%);stop-opacity:1;"/>
<stop offset="0.453125" style="stop-color:rgb(81.600952%,21.600342%,25.003052%);stop-opacity:1;"/>
<stop offset="0.46875" style="stop-color:rgb(81.599426%,21.598816%,24.801636%);stop-opacity:1;"/>
<stop offset="0.484375" style="stop-color:rgb(81.498718%,21.498108%,24.699402%);stop-opacity:1;"/>
<stop offset="0.5" style="stop-color:rgb(81.298828%,21.298218%,24.697876%);stop-opacity:1;"/>
<stop offset="0.515625" style="stop-color:rgb(81.097412%,21.096802%,24.597168%);stop-opacity:1;"/>
<stop offset="0.53125" style="stop-color:rgb(80.895996%,20.895386%,24.395752%);stop-opacity:1;"/>
<stop offset="0.5625" style="stop-color:rgb(80.599976%,20.599365%,24.099731%);stop-opacity:1;"/>
<stop offset="0.578125" style="stop-color:rgb(80.401611%,20.303345%,23.803711%);stop-opacity:1;"/>
<stop offset="0.59375" style="stop-color:rgb(80.39856%,20.101929%,23.602295%);stop-opacity:1;"/>
<stop offset="0.609375" style="stop-color:rgb(80.299377%,19.999695%,23.400879%);stop-opacity:1;"/>
<stop offset="0.625" style="stop-color:rgb(80.099487%,19.998169%,23.199463%);stop-opacity:1;"/>
<stop offset="0.640625" style="stop-color:rgb(79.898071%,19.897461%,23.098755%);stop-opacity:1;"/>
<stop offset="0.65625" style="stop-color:rgb(79.698181%,19.696045%,23.097229%);stop-opacity:1;"/>
<stop offset="0.6875" style="stop-color:rgb(79.598999%,19.400024%,22.900391%);stop-opacity:1;"/>
<stop offset="0.703125" style="stop-color:rgb(79.501343%,19.10553%,22.628784%);stop-opacity:1;"/>
<stop offset="0.71875" style="stop-color:rgb(79.302979%,18.904114%,22.476196%);stop-opacity:1;"/>
<stop offset="0.734375" style="stop-color:rgb(79.101562%,18.701172%,22.30072%);stop-opacity:1;"/>
<stop offset="0.75" style="stop-color:rgb(78.900146%,18.499756%,22.10083%);stop-opacity:1;"/>
<stop offset="0.875" style="stop-color:rgb(78.69873%,18.29834%,21.899414%);stop-opacity:1;"/>
<stop offset="1" style="stop-color:rgb(78.49884%,18.09845%,21.697998%);stop-opacity:1;"/>
</linearGradient>
<clipPath id="clip13">
  <path d="M 576.835938 721.25 L 877.128906 721.25 L 877.128906 1022.058594 L 576.835938 1022.058594 Z M 576.835938 721.25 "/>
</clipPath>
<clipPath id="clip14">
  <path d="M 600.859375 1022.058594 L 853.105469 1022.058594 C 866.339844 1022.058594 877.128906 1011.21875 877.128906 998.03125 L 877.128906 745.277344 C 877.128906 732.042969 866.339844 721.25 853.105469 721.25 L 600.859375 721.25 C 587.628906 721.25 576.835938 732.042969 576.835938 745.277344 L 576.835938 998.03125 C 576.835938 1011.21875 587.628906 1022.058594 600.859375 1022.058594 Z M 600.859375 1022.058594 "/>
</clipPath>
<clipPath id="clip15">
  <path d="M 600.859375 1022.058594 L 853.105469 1022.058594 C 866.339844 1022.058594 877.128906 1011.21875 877.128906 998.03125 L 877.128906 745.277344 C 877.128906 732.042969 866.339844 721.25 853.105469 721.25 L 600.859375 721.25 C 587.628906 721.25 576.835938 732.042969 576.835938 745.277344 L 576.835938 998.03125 C 576.835938 1011.21875 587.628906 1022.058594 600.859375 1022.058594 "/>
</clipPath>
<linearGradient id="linear3" gradientUnits="userSpaceOnUse" x1="0.374628" y1="0" x2="0.938894" y2="0" gradientTransform="matrix(532.18535,0,0,532.26324,377.463992,871.648262)">
<stop offset="0" style="stop-color:rgb(87.098694%,34.498596%,37.599182%);stop-opacity:1;"/>
<stop offset="0.0625" style="stop-color:rgb(87.098694%,34.498596%,37.451172%);stop-opacity:1;"/>
<stop offset="0.09375" style="stop-color:rgb(87.001038%,34.40094%,37.301636%);stop-opacity:1;"/>
<stop offset="0.125" style="stop-color:rgb(86.804199%,34.204102%,37.298584%);stop-opacity:1;"/>
<stop offset="0.15625" style="stop-color:rgb(86.700439%,34.100342%,37.200928%);stop-opacity:1;"/>
<stop offset="0.1875" style="stop-color:rgb(86.698914%,34.098816%,37.005615%);stop-opacity:1;"/>
<stop offset="0.21875" style="stop-color:rgb(86.601257%,34.00116%,36.805725%);stop-opacity:1;"/>
<stop offset="0.25" style="stop-color:rgb(86.402893%,33.802795%,36.602783%);stop-opacity:1;"/>
<stop offset="0.28125" style="stop-color:rgb(86.203003%,33.602905%,36.402893%);stop-opacity:1;"/>
<stop offset="0.3125" style="stop-color:rgb(86.004639%,33.404541%,36.204529%);stop-opacity:1;"/>
<stop offset="0.34375" style="stop-color:rgb(85.902405%,33.204651%,36.004639%);stop-opacity:1;"/>
<stop offset="0.375" style="stop-color:rgb(85.899353%,33.003235%,35.803223%);stop-opacity:1;"/>
<stop offset="0.390625" style="stop-color:rgb(85.801697%,32.803345%,35.700989%);stop-opacity:1;"/>
<stop offset="0.40625" style="stop-color:rgb(85.603333%,32.603455%,35.699463%);stop-opacity:1;"/>
<stop offset="0.4375" style="stop-color:rgb(85.501099%,32.501221%,35.505676%);stop-opacity:1;"/>
<stop offset="0.453125" style="stop-color:rgb(85.404968%,32.427979%,35.305786%);stop-opacity:1;"/>
<stop offset="0.46875" style="stop-color:rgb(85.20813%,32.281494%,35.299683%);stop-opacity:1;"/>
<stop offset="0.484375" style="stop-color:rgb(85.102844%,32.202148%,35.202026%);stop-opacity:1;"/>
<stop offset="0.5" style="stop-color:rgb(85.099792%,32.199097%,35.005188%);stop-opacity:1;"/>
<stop offset="0.515625" style="stop-color:rgb(85.00061%,32.099915%,34.901428%);stop-opacity:1;"/>
<stop offset="0.53125" style="stop-color:rgb(84.802246%,31.90155%,34.899902%);stop-opacity:1;"/>
<stop offset="0.5625" style="stop-color:rgb(84.700012%,31.799316%,34.70459%);stop-opacity:1;"/>
<stop offset="0.578125" style="stop-color:rgb(84.603882%,31.703186%,34.410095%);stop-opacity:1;"/>
<stop offset="0.59375" style="stop-color:rgb(84.408569%,31.507874%,34.208679%);stop-opacity:1;"/>
<stop offset="0.609375" style="stop-color:rgb(84.303284%,31.306458%,34.103394%);stop-opacity:1;"/>
<stop offset="0.625" style="stop-color:rgb(84.298706%,31.105042%,34.098816%);stop-opacity:1;"/>
<stop offset="0.640625" style="stop-color:rgb(84.298706%,31.001282%,33.999634%);stop-opacity:1;"/>
<stop offset="0.65625" style="stop-color:rgb(84.298706%,30.999756%,33.80127%);stop-opacity:1;"/>
<stop offset="0.6875" style="stop-color:rgb(84.103394%,30.804443%,33.699036%);stop-opacity:1;"/>
<stop offset="0.703125" style="stop-color:rgb(83.903503%,30.604553%,33.602905%);stop-opacity:1;"/>
<stop offset="0.71875" style="stop-color:rgb(83.898926%,30.599976%,33.407593%);stop-opacity:1;"/>
<stop offset="0.734375" style="stop-color:rgb(83.80127%,30.502319%,33.206177%);stop-opacity:1;"/>
<stop offset="0.75" style="stop-color:rgb(83.604431%,30.303955%,33.003235%);stop-opacity:1;"/>
<stop offset="0.765625" style="stop-color:rgb(83.401489%,30.102539%,32.901001%);stop-opacity:1;"/>
<stop offset="0.78125" style="stop-color:rgb(83.200073%,29.901123%,32.899475%);stop-opacity:1;"/>
<stop offset="0.8125" style="stop-color:rgb(83.099365%,29.798889%,32.704163%);stop-opacity:1;"/>
<stop offset="0.828125" style="stop-color:rgb(83.003235%,29.702759%,32.504272%);stop-opacity:1;"/>
<stop offset="0.84375" style="stop-color:rgb(82.806396%,29.50592%,32.499695%);stop-opacity:1;"/>
<stop offset="0.859375" style="stop-color:rgb(82.702637%,29.304504%,32.426453%);stop-opacity:1;"/>
<stop offset="0.875" style="stop-color:rgb(82.699585%,29.103088%,32.276917%);stop-opacity:1;"/>
<stop offset="0.890625" style="stop-color:rgb(82.624817%,28.901672%,32.10144%);stop-opacity:1;"/>
<stop offset="0.90625" style="stop-color:rgb(82.473755%,28.700256%,31.900024%);stop-opacity:1;"/>
<stop offset="0.9375" style="stop-color:rgb(82.398987%,28.599548%,31.604004%);stop-opacity:1;"/>
<stop offset="0.953125" style="stop-color:rgb(82.302856%,28.503418%,31.404114%);stop-opacity:1;"/>
<stop offset="0.96875" style="stop-color:rgb(82.106018%,28.305054%,31.399536%);stop-opacity:1;"/>
<stop offset="0.984375" style="stop-color:rgb(81.904602%,28.103638%,31.300354%);stop-opacity:1;"/>
<stop offset="1" style="stop-color:rgb(81.70166%,27.902222%,31.10199%);stop-opacity:1;"/>
</linearGradient>
<clipPath id="clip16">
  <path d="M 130 1061 L 185 1061 L 185 1117 L 130 1117 Z M 130 1061 "/>
</clipPath>
<clipPath id="clip17">
  <path d="M 184.855469 1089.070312 C 184.855469 1104.132812 172.609375 1116.289062 157.550781 1116.289062 C 142.488281 1116.289062 130.242188 1104.132812 130.242188 1089.070312 C 130.242188 1074.007812 142.488281 1061.804688 157.550781 1061.804688 C 172.609375 1061.804688 184.855469 1074.007812 184.855469 1089.070312 Z M 184.855469 1089.070312 "/>
</clipPath>
<clipPath id="clip18">
  <path d="M 184.855469 1089.070312 C 184.855469 1104.132812 172.609375 1116.289062 157.550781 1116.289062 C 142.488281 1116.289062 130.242188 1104.132812 130.242188 1089.070312 C 130.242188 1074.007812 142.488281 1061.804688 157.550781 1061.804688 C 172.609375 1061.804688 184.855469 1074.007812 184.855469 1089.070312 "/>
</clipPath>
<clipPath id="clip19">
  <path d="M 717.363281 1416.015625 L 771.980469 1416.015625 L 771.980469 1470.546875 L 717.363281 1470.546875 Z M 717.363281 1416.015625 "/>
</clipPath>
<clipPath id="clip20">
  <path d="M 771.980469 1443.28125 C 771.980469 1458.300781 759.78125 1470.546875 744.671875 1470.546875 C 729.609375 1470.546875 717.363281 1458.300781 717.363281 1443.28125 C 717.363281 1428.21875 729.609375 1416.015625 744.671875 1416.015625 C 759.78125 1416.015625 771.980469 1428.21875 771.980469 1443.28125 Z M 771.980469 1443.28125 "/>
</clipPath>
<clipPath id="clip21">
  <path d="M 771.980469 1443.28125 C 771.980469 1458.300781 759.78125 1470.546875 744.671875 1470.546875 C 729.609375 1470.546875 717.363281 1458.300781 717.363281 1443.28125 C 717.363281 1428.21875 729.609375 1416.015625 744.671875 1416.015625 C 759.78125 1416.015625 771.980469 1428.21875 771.980469 1443.28125 "/>
</clipPath>
<linearGradient id="linear4" gradientUnits="userSpaceOnUse" x1="0.1072" y1="0" x2="0.182197" y2="0" gradientTransform="matrix(728.240401,0,0,728.346964,639.296747,1443.276168)">
<stop offset="0" style="stop-color:rgb(88.198853%,36.099243%,38.798523%);stop-opacity:1;"/>
<stop offset="0.5" style="stop-color:rgb(88.197327%,36.097717%,38.796997%);stop-opacity:1;"/>
<stop offset="0.75" style="stop-color:rgb(88.096619%,35.997009%,38.696289%);stop-opacity:1;"/>
<stop offset="1" style="stop-color:rgb(87.898254%,35.798645%,38.497925%);stop-opacity:1;"/>
</linearGradient>
<clipPath id="clip22">
  <path d="M 608 1334 L 663 1334 L 663 1389 L 608 1389 Z M 608 1334 "/>
</clipPath>
<clipPath id="clip23">
  <path d="M 662.746094 1361.535156 C 662.746094 1376.597656 650.546875 1388.753906 635.441406 1388.753906 C 620.378906 1388.753906 608.132812 1376.597656 608.132812 1361.535156 C 608.132812 1346.46875 620.378906 1334.269531 635.441406 1334.269531 C 650.546875 1334.269531 662.746094 1346.46875 662.746094 1361.535156 Z M 662.746094 1361.535156 "/>
</clipPath>
<clipPath id="clip24">
  <path d="M 662.746094 1361.535156 C 662.746094 1376.597656 650.546875 1388.753906 635.441406 1388.753906 C 620.378906 1388.753906 608.132812 1376.597656 608.132812 1361.535156 C 608.132812 1346.46875 620.378906 1334.269531 635.441406 1334.269531 C 650.546875 1334.269531 662.746094 1346.46875 662.746094 1361.535156 "/>
</clipPath>
<clipPath id="clip25">
  <path d="M 990.445312 966.449219 L 1045.105469 966.449219 L 1045.105469 1020.929688 L 990.445312 1020.929688 Z M 990.445312 966.449219 "/>
</clipPath>
<clipPath id="clip26">
  <path d="M 1045.105469 993.714844 C 1045.105469 1008.730469 1032.859375 1020.929688 1017.800781 1020.929688 C 1002.691406 1020.929688 990.445312 1008.730469 990.445312 993.714844 C 990.445312 978.648438 1002.691406 966.449219 1017.800781 966.449219 C 1032.859375 966.449219 1045.105469 978.648438 1045.105469 993.714844 Z M 1045.105469 993.714844 "/>
</clipPath>
<clipPath id="clip27">
  <path d="M 1045.105469 993.714844 C 1045.105469 1008.730469 1032.859375 1020.929688 1017.800781 1020.929688 C 1002.691406 1020.929688 990.445312 1008.730469 990.445312 993.714844 C 990.445312 978.648438 1002.691406 966.449219 1017.800781 966.449219 C 1032.859375 966.449219 1045.105469 978.648438 1045.105469 993.714844 "/>
</clipPath>
<linearGradient id="linear5" gradientUnits="userSpaceOnUse" x1="0.207178" y1="0" x2="0.282239" y2="0" gradientTransform="matrix(728.240401,0,0,728.346964,839.569051,993.705751)">
<stop offset="0" style="stop-color:rgb(87.799072%,35.699463%,38.398743%);stop-opacity:1;"/>
<stop offset="0.5" style="stop-color:rgb(87.799072%,35.697937%,38.397217%);stop-opacity:1;"/>
<stop offset="0.75" style="stop-color:rgb(87.799072%,35.595703%,38.296509%);stop-opacity:1;"/>
<stop offset="1" style="stop-color:rgb(87.799072%,35.397339%,38.098145%);stop-opacity:1;"/>
</linearGradient>
<clipPath id="clip28">
  <path d="M 935.875 666.71875 L 990.445312 666.71875 L 990.445312 721.25 L 935.875 721.25 Z M 935.875 666.71875 "/>
</clipPath>
<clipPath id="clip29">
  <path d="M 990.445312 693.984375 C 990.445312 709.050781 978.246094 721.25 963.136719 721.25 C 948.074219 721.25 935.875 709.050781 935.875 693.984375 C 935.875 678.921875 948.074219 666.71875 963.136719 666.71875 C 978.246094 666.71875 990.445312 678.921875 990.445312 693.984375 Z M 990.445312 693.984375 "/>
</clipPath>
<clipPath id="clip30">
  <path d="M 990.445312 693.984375 C 990.445312 709.050781 978.246094 721.25 963.136719 721.25 C 948.074219 721.25 935.875 709.050781 935.875 693.984375 C 935.875 678.921875 948.074219 666.71875 963.136719 666.71875 C 978.246094 666.71875 990.445312 678.921875 990.445312 693.984375 "/>
</clipPath>
<clipPath id="clip31">
  <path d="M 485 625.609375 L 540 625.609375 L 540 681 L 485 681 Z M 485 625.609375 "/>
</clipPath>
<clipPath id="clip32">
  <path d="M 539.863281 653.109375 C 539.863281 668.175781 527.664062 680.328125 512.554688 680.328125 C 497.492188 680.328125 485.246094 668.175781 485.246094 653.109375 C 485.246094 638.046875 497.492188 625.847656 512.554688 625.847656 C 527.664062 625.847656 539.863281 638.046875 539.863281 653.109375 Z M 539.863281 653.109375 "/>
</clipPath>
<clipPath id="clip33">
  <path d="M 539.863281 653.109375 C 539.863281 668.175781 527.664062 680.328125 512.554688 680.328125 C 497.492188 680.328125 485.246094 668.175781 485.246094 653.109375 C 485.246094 638.046875 497.492188 625.847656 512.554688 625.847656 C 527.664062 625.847656 539.863281 638.046875 539.863281 653.109375 "/>
</clipPath>
<clipPath id="clip34">
  <path d="M 120.386719 661 L 517 661 L 517 1058.097656 L 120.386719 1058.097656 Z M 120.386719 661 "/>
</clipPath>
<clipPath id="clip35">
  <path d="M 132.398438 889.722656 L 288.554688 1045.898438 C 302.582031 1059.929688 327.214844 1064.292969 348.613281 1045.898438 L 504.765625 889.722656 C 518.792969 877.707031 523.15625 848.050781 504.765625 829.652344 L 348.613281 673.476562 C 332.519531 657.382812 303.378906 657.523438 288.554688 673.476562 L 132.398438 829.652344 C 116.398438 845.65625 116.351562 873.671875 132.398438 889.722656 Z M 132.398438 889.722656 "/>
</clipPath>
<clipPath id="clip36">
  <path d="M 132.398438 889.722656 L 288.554688 1045.898438 C 302.582031 1059.929688 327.214844 1064.292969 348.613281 1045.898438 L 504.765625 889.722656 C 518.792969 877.707031 523.15625 848.050781 504.765625 829.652344 L 348.613281 673.476562 C 332.519531 657.382812 303.378906 657.523438 288.554688 673.476562 L 132.398438 829.652344 C 116.398438 845.65625 116.351562 873.671875 132.398438 889.722656 "/>
</clipPath>
<linearGradient id="linear6" gradientUnits="userSpaceOnUse" x1="-0.0634583" y1="0" x2="1.016662" y2="0" gradientTransform="matrix(372.893602,0,0,372.948168,144.051153,859.778911)">
<stop offset="0" style="stop-color:rgb(88.198853%,36.099243%,38.798523%);stop-opacity:1;"/>
<stop offset="0.125" style="stop-color:rgb(88.198853%,36.08551%,38.78479%);stop-opacity:1;"/>
<stop offset="0.25" style="stop-color:rgb(88.175964%,35.88562%,38.5849%);stop-opacity:1;"/>
<stop offset="0.28125" style="stop-color:rgb(88.05542%,35.699463%,38.398743%);stop-opacity:1;"/>
<stop offset="0.3125" style="stop-color:rgb(87.849426%,35.65979%,38.35907%);stop-opacity:1;"/>
<stop offset="0.328125" style="stop-color:rgb(87.666321%,35.520935%,38.220215%);stop-opacity:1;"/>
<stop offset="0.34375" style="stop-color:rgb(87.545776%,35.321045%,38.059998%);stop-opacity:1;"/>
<stop offset="0.375" style="stop-color:rgb(87.460327%,35.06012%,37.960815%);stop-opacity:1;"/>
<stop offset="0.40625" style="stop-color:rgb(87.260437%,34.863281%,37.733459%);stop-opacity:1;"/>
<stop offset="0.4375" style="stop-color:rgb(87.068176%,34.661865%,37.420654%);stop-opacity:1;"/>
<stop offset="0.46875" style="stop-color:rgb(86.868286%,34.468079%,37.268066%);stop-opacity:1;"/>
<stop offset="0.484375" style="stop-color:rgb(86.698914%,34.338379%,37.138367%);stop-opacity:1;"/>
<stop offset="0.5" style="stop-color:rgb(86.668396%,34.138489%,36.938477%);stop-opacity:1;"/>
<stop offset="0.515625" style="stop-color:rgb(86.538696%,33.938599%,36.738586%);stop-opacity:1;"/>
<stop offset="0.53125" style="stop-color:rgb(86.369324%,33.740234%,36.540222%);stop-opacity:1;"/>
<stop offset="0.5625" style="stop-color:rgb(86.276245%,33.447266%,36.270142%);stop-opacity:1;"/>
<stop offset="0.578125" style="stop-color:rgb(86.152649%,33.152771%,36.099243%);stop-opacity:1;"/>
<stop offset="0.59375" style="stop-color:rgb(85.952759%,32.952881%,36.076355%);stop-opacity:1;"/>
<stop offset="0.609375" style="stop-color:rgb(85.754395%,32.754517%,35.954285%);stop-opacity:1;"/>
<stop offset="0.625" style="stop-color:rgb(85.577393%,32.577515%,35.734558%);stop-opacity:1;"/>
<stop offset="0.640625" style="stop-color:rgb(85.4599%,32.470703%,35.456848%);stop-opacity:1;"/>
<stop offset="0.65625" style="stop-color:rgb(85.26001%,32.319641%,35.256958%);stop-opacity:1;"/>
<stop offset="0.671875" style="stop-color:rgb(85.063171%,32.164001%,35.057068%);stop-opacity:1;"/>
<stop offset="0.6875" style="stop-color:rgb(84.863281%,31.964111%,34.867859%);stop-opacity:1;"/>
<stop offset="0.695312" style="stop-color:rgb(84.698486%,31.799316%,34.733582%);stop-opacity:1;"/>
<stop offset="0.703125" style="stop-color:rgb(84.663391%,31.764221%,34.53064%);stop-opacity:1;"/>
<stop offset="0.71875" style="stop-color:rgb(84.463501%,31.533813%,34.263611%);stop-opacity:1;"/>
<stop offset="0.734375" style="stop-color:rgb(84.298706%,31.169128%,34.065247%);stop-opacity:1;"/>
<stop offset="0.75" style="stop-color:rgb(84.27124%,30.97229%,33.865356%);stop-opacity:1;"/>
<stop offset="0.765625" style="stop-color:rgb(84.07135%,30.7724%,33.676147%);stop-opacity:1;"/>
<stop offset="0.78125" style="stop-color:rgb(83.87146%,30.57251%,33.476257%);stop-opacity:1;"/>
<stop offset="0.796875" style="stop-color:rgb(83.67157%,30.352783%,33.279419%);stop-opacity:1;"/>
<stop offset="0.8125" style="stop-color:rgb(83.485413%,29.978943%,33.06427%);stop-opacity:1;"/>
<stop offset="0.828125" style="stop-color:rgb(83.285522%,29.779053%,32.684326%);stop-opacity:1;"/>
<stop offset="0.84375" style="stop-color:rgb(83.085632%,29.566956%,32.489014%);stop-opacity:1;"/>
<stop offset="0.851562" style="stop-color:rgb(82.96814%,29.269409%,32.402039%);stop-opacity:1;"/>
<stop offset="0.859375" style="stop-color:rgb(82.76825%,29.081726%,32.243347%);stop-opacity:1;"/>
<stop offset="0.875" style="stop-color:rgb(82.53479%,28.987122%,31.980896%);stop-opacity:1;"/>
<stop offset="0.890625" style="stop-color:rgb(82.392883%,28.782654%,31.793213%);stop-opacity:1;"/>
<stop offset="0.898438" style="stop-color:rgb(82.284546%,28.485107%,31.684875%);stop-opacity:1;"/>
<stop offset="0.90625" style="stop-color:rgb(82.090759%,28.279114%,31.478882%);stop-opacity:1;"/>
<stop offset="0.921875" style="stop-color:rgb(81.994629%,27.987671%,31.187439%);stop-opacity:1;"/>
<stop offset="0.9375" style="stop-color:rgb(81.796265%,27.799988%,30.999756%);stop-opacity:1;"/>
<stop offset="0.945312" style="stop-color:rgb(81.600952%,27.723694%,30.899048%);stop-opacity:1;"/>
<stop offset="0.953125" style="stop-color:rgb(81.594849%,27.56958%,30.69458%);stop-opacity:1;"/>
<stop offset="0.96875" style="stop-color:rgb(81.39801%,27.297974%,30.39856%);stop-opacity:1;"/>
<stop offset="0.984375" style="stop-color:rgb(81.103516%,27.003479%,30.104065%);stop-opacity:1;"/>
<stop offset="1" style="stop-color:rgb(80.9021%,26.802063%,29.902649%);stop-opacity:1;"/>
</linearGradient>
<clipPath id="clip37">
  <path d="M 204.46875 1105 L 589 1105 L 589 1490.585938 L 204.46875 1490.585938 Z M 204.46875 1105 "/>
</clipPath>
<clipPath id="clip38">
  <path d="M 228.445312 1382.183594 L 408.625 1478.289062 C 425.796875 1488.191406 459.957031 1505.085938 480.695312 1466.277344 L 576.789062 1286.074219 C 587.203125 1265.800781 602.6875 1233.515625 564.777344 1213.992188 L 384.601562 1117.882812 C 338.617188 1093.667969 323.414062 1110.609375 312.53125 1129.898438 L 216.433594 1310.101562 C 192.410156 1348.207031 208.789062 1370.871094 228.445312 1382.183594 Z M 228.445312 1382.183594 "/>
</clipPath>
<clipPath id="clip39">
  <path d="M 228.445312 1382.183594 L 408.625 1478.289062 C 425.796875 1488.191406 459.957031 1505.085938 480.695312 1466.277344 L 576.789062 1286.074219 C 587.203125 1265.800781 602.6875 1233.515625 564.777344 1213.992188 L 384.601562 1117.882812 C 338.617188 1093.667969 323.414062 1110.609375 312.53125 1129.898438 L 216.433594 1310.101562 C 192.410156 1348.207031 208.789062 1370.871094 228.445312 1382.183594 "/>
</clipPath>
<linearGradient id="linear7" gradientUnits="userSpaceOnUse" x1="0.164862" y1="0" x2="1.219822" y2="0" gradientTransform="matrix(375.73797,0,0,375.792955,142.525655,1298.248772)">
<stop offset="0" style="stop-color:rgb(88.014221%,35.914612%,38.613892%);stop-opacity:1;"/>
<stop offset="0.0625" style="stop-color:rgb(87.905884%,35.806274%,38.505554%);stop-opacity:1;"/>
<stop offset="0.125" style="stop-color:rgb(87.678528%,35.53772%,38.237%);stop-opacity:1;"/>
<stop offset="0.15625" style="stop-color:rgb(87.528992%,35.186768%,37.887573%);stop-opacity:1;"/>
<stop offset="0.1875" style="stop-color:rgb(87.355042%,34.94873%,37.64801%);stop-opacity:1;"/>
<stop offset="0.21875" style="stop-color:rgb(87.155151%,34.761047%,37.495422%);stop-opacity:1;"/>
<stop offset="0.25" style="stop-color:rgb(86.964417%,34.42688%,37.34436%);stop-opacity:1;"/>
<stop offset="0.28125" style="stop-color:rgb(86.764526%,34.164429%,37.174988%);stop-opacity:1;"/>
<stop offset="0.3125" style="stop-color:rgb(86.581421%,33.981323%,36.857605%);stop-opacity:1;"/>
<stop offset="0.34375" style="stop-color:rgb(86.381531%,33.670044%,36.470032%);stop-opacity:1;"/>
<stop offset="0.375" style="stop-color:rgb(86.192322%,33.280945%,36.187744%);stop-opacity:1;"/>
<stop offset="0.40625" style="stop-color:rgb(85.894775%,32.894897%,36.001587%);stop-opacity:1;"/>
<stop offset="0.421875" style="stop-color:rgb(85.609436%,32.609558%,35.809326%);stop-opacity:1;"/>
<stop offset="0.4375" style="stop-color:rgb(85.507202%,32.507324%,35.522461%);stop-opacity:1;"/>
<stop offset="0.453125" style="stop-color:rgb(85.325623%,32.368469%,35.139465%);stop-opacity:1;"/>
<stop offset="0.46875" style="stop-color:rgb(85.125732%,32.217407%,34.924316%);stop-opacity:1;"/>
<stop offset="0.484375" style="stop-color:rgb(84.934998%,32.034302%,34.735107%);stop-opacity:1;"/>
<stop offset="0.5" style="stop-color:rgb(84.735107%,31.681824%,34.535217%);stop-opacity:1;"/>
<stop offset="0.515625" style="stop-color:rgb(84.547424%,31.446838%,34.347534%);stop-opacity:1;"/>
<stop offset="0.53125" style="stop-color:rgb(84.347534%,31.256104%,34.147644%);stop-opacity:1;"/>
<stop offset="0.546875" style="stop-color:rgb(84.16748%,31.056213%,33.96759%);stop-opacity:1;"/>
<stop offset="0.5625" style="stop-color:rgb(83.96759%,30.871582%,33.7677%);stop-opacity:1;"/>
<stop offset="0.578125" style="stop-color:rgb(83.776855%,30.549622%,33.576965%);stop-opacity:1;"/>
<stop offset="0.585938" style="stop-color:rgb(83.576965%,30.278015%,33.360291%);stop-opacity:1;"/>
<stop offset="0.59375" style="stop-color:rgb(83.499146%,30.198669%,33.164978%);stop-opacity:1;"/>
<stop offset="0.609375" style="stop-color:rgb(83.387756%,30.08728%,32.981873%);stop-opacity:1;"/>
<stop offset="0.625" style="stop-color:rgb(83.187866%,29.88739%,32.798767%);stop-opacity:1;"/>
<stop offset="0.640625" style="stop-color:rgb(83.004761%,29.704285%,32.598877%);stop-opacity:1;"/>
<stop offset="0.65625" style="stop-color:rgb(82.804871%,29.415894%,32.432556%);stop-opacity:1;"/>
<stop offset="0.671875" style="stop-color:rgb(82.640076%,29.031372%,32.203674%);stop-opacity:1;"/>
<stop offset="0.6875" style="stop-color:rgb(82.49054%,28.720093%,31.919861%);stop-opacity:1;"/>
<stop offset="0.703125" style="stop-color:rgb(82.330322%,28.530884%,31.730652%);stop-opacity:1;"/>
<stop offset="0.71875" style="stop-color:rgb(82.130432%,28.269958%,31.469727%);stop-opacity:1;"/>
<stop offset="0.726562" style="stop-color:rgb(81.999207%,27.97699%,31.176758%);stop-opacity:1;"/>
<stop offset="0.734375" style="stop-color:rgb(81.941223%,27.838135%,30.979919%);stop-opacity:1;"/>
<stop offset="0.75" style="stop-color:rgb(81.694031%,27.764893%,30.741882%);stop-opacity:1;"/>
<stop offset="0.765625" style="stop-color:rgb(81.352234%,27.575684%,30.561829%);stop-opacity:1;"/>
<stop offset="0.78125" style="stop-color:rgb(81.181335%,27.243042%,30.342102%);stop-opacity:1;"/>
<stop offset="0.8125" style="stop-color:rgb(80.981445%,26.881409%,29.980469%);stop-opacity:1;"/>
<stop offset="0.875" style="stop-color:rgb(80.799866%,26.699829%,29.798889%);stop-opacity:1;"/>
<stop offset="1" style="stop-color:rgb(80.799866%,26.699829%,29.798889%);stop-opacity:1;"/>
</linearGradient>
<clipPath id="clip40">
  <path d="M 648.90625 986.015625 L 1046 986.015625 L 1046 1383 L 648.90625 1383 Z M 648.90625 986.015625 "/>
</clipPath>
<clipPath id="clip41">
  <path d="M 660.917969 1214.273438 L 817.070312 1370.449219 C 831.101562 1384.480469 855.734375 1388.847656 877.128906 1370.449219 L 1033.28125 1214.273438 C 1047.3125 1202.261719 1051.675781 1172.601562 1033.28125 1154.207031 L 877.128906 998.03125 C 861.035156 981.933594 831.898438 982.074219 817.070312 998.03125 L 660.917969 1154.207031 C 644.917969 1170.207031 644.871094 1198.226562 660.917969 1214.273438 Z M 660.917969 1214.273438 "/>
</clipPath>
<clipPath id="clip42">
  <path d="M 660.917969 1214.273438 L 817.070312 1370.449219 C 831.101562 1384.480469 855.734375 1388.847656 877.128906 1370.449219 L 1033.28125 1214.273438 C 1047.3125 1202.261719 1051.675781 1172.601562 1033.28125 1154.207031 L 877.128906 998.03125 C 861.035156 981.933594 831.898438 982.074219 817.070312 998.03125 L 660.917969 1154.207031 C 644.917969 1170.207031 644.871094 1198.226562 660.917969 1214.273438 "/>
</clipPath>
<linearGradient id="linear8" gradientUnits="userSpaceOnUse" x1="0.0477421" y1="0" x2="0.630293" y2="0" gradientTransform="matrix(691.389412,0,0,691.490608,615.897741,1184.336541)">
<stop offset="0" style="stop-color:rgb(88.198853%,36.099243%,38.798523%);stop-opacity:1;"/>
<stop offset="0.25" style="stop-color:rgb(88.186646%,36.087036%,38.786316%);stop-opacity:1;"/>
<stop offset="0.3125" style="stop-color:rgb(88.076782%,35.975647%,38.676453%);stop-opacity:1;"/>
<stop offset="0.375" style="stop-color:rgb(87.872314%,35.768127%,38.467407%);stop-opacity:1;"/>
<stop offset="0.40625" style="stop-color:rgb(87.695312%,35.560608%,38.259888%);stop-opacity:1;"/>
<stop offset="0.4375" style="stop-color:rgb(87.561035%,35.36377%,38.079834%);stop-opacity:1;"/>
<stop offset="0.5" style="stop-color:rgb(87.483215%,35.083008%,37.982178%);stop-opacity:1;"/>
<stop offset="0.5625" style="stop-color:rgb(87.281799%,34.886169%,37.773132%);stop-opacity:1;"/>
<stop offset="0.59375" style="stop-color:rgb(87.098694%,34.773254%,37.504578%);stop-opacity:1;"/>
<stop offset="0.625" style="stop-color:rgb(87.086487%,34.573364%,37.364197%);stop-opacity:1;"/>
<stop offset="0.6875" style="stop-color:rgb(86.886597%,34.286499%,37.289429%);stop-opacity:1;"/>
<stop offset="0.71875" style="stop-color:rgb(86.698914%,34.098816%,37.179565%);stop-opacity:1;"/>
<stop offset="0.75" style="stop-color:rgb(86.689758%,34.089661%,36.981201%);stop-opacity:1;"/>
<stop offset="0.78125" style="stop-color:rgb(86.582947%,33.982849%,36.782837%);stop-opacity:1;"/>
<stop offset="0.8125" style="stop-color:rgb(86.386108%,33.786011%,36.585999%);stop-opacity:1;"/>
<stop offset="0.84375" style="stop-color:rgb(86.187744%,33.587646%,36.387634%);stop-opacity:1;"/>
<stop offset="0.875" style="stop-color:rgb(85.993958%,33.383179%,36.183167%);stop-opacity:1;"/>
<stop offset="0.90625" style="stop-color:rgb(85.888672%,33.088684%,35.888672%);stop-opacity:1;"/>
<stop offset="0.9375" style="stop-color:rgb(85.688782%,32.894897%,35.694885%);stop-opacity:1;"/>
<stop offset="0.953125" style="stop-color:rgb(85.499573%,32.791138%,35.591125%);stop-opacity:1;"/>
<stop offset="0.96875" style="stop-color:rgb(85.494995%,32.592773%,35.395813%);stop-opacity:1;"/>
<stop offset="0.984375" style="stop-color:rgb(85.391235%,32.418823%,35.299683%);stop-opacity:1;"/>
<stop offset="1" style="stop-color:rgb(85.195923%,32.270813%,35.299683%);stop-opacity:1;"/>
</linearGradient>
<clipPath id="clip43">
  <path d="M 564.824219 433.394531 L 829.082031 433.394531 L 829.082031 673.664062 L 564.824219 673.664062 Z M 564.824219 433.394531 "/>
</clipPath>
<clipPath id="clip44">
  <path d="M 564.824219 553.53125 C 564.824219 619.886719 623.992188 673.664062 696.953125 673.664062 C 769.914062 673.664062 829.082031 619.886719 829.082031 553.53125 C 829.082031 487.175781 769.914062 433.394531 696.953125 433.394531 C 623.992188 433.394531 564.824219 487.175781 564.824219 553.53125 Z M 564.824219 553.53125 "/>
</clipPath>
<clipPath id="clip45">
  <path d="M 564.824219 553.53125 C 564.824219 619.886719 623.992188 673.664062 696.953125 673.664062 C 769.914062 673.664062 829.082031 619.886719 829.082031 553.53125 C 829.082031 487.175781 769.914062 433.394531 696.953125 433.394531 C 623.992188 433.394531 564.824219 487.175781 564.824219 553.53125 "/>
</clipPath>
<clipPath id="clip46">
  <path d="M 562.710938 433.394531 L 829.082031 431.046875 L 831.195312 673.664062 L 564.824219 676.011719 Z M 562.710938 433.394531 "/>
</clipPath>
<linearGradient id="linear9" gradientUnits="userSpaceOnUse" x1="0.176066" y1="0" x2="0.887688" y2="0" gradientTransform="matrix(3.002944,340.884022,340.834154,-3.003384,695.355663,372.22156)">
<stop offset="0" style="stop-color:rgb(73.699951%,17.298889%,20.399475%);stop-opacity:1;"/>
<stop offset="0.03125" style="stop-color:rgb(73.699951%,17.199707%,20.399475%);stop-opacity:1;"/>
<stop offset="0.0625" style="stop-color:rgb(73.699951%,17.001343%,20.399475%);stop-opacity:1;"/>
<stop offset="0.09375" style="stop-color:rgb(73.599243%,16.900635%,20.300293%);stop-opacity:1;"/>
<stop offset="0.125" style="stop-color:rgb(73.399353%,16.899109%,20.100403%);stop-opacity:1;"/>
<stop offset="0.15625" style="stop-color:rgb(73.199463%,16.799927%,19.900513%);stop-opacity:1;"/>
<stop offset="0.1875" style="stop-color:rgb(73.001099%,16.601562%,19.702148%);stop-opacity:1;"/>
<stop offset="0.21875" style="stop-color:rgb(72.801208%,16.401672%,19.502258%);stop-opacity:1;"/>
<stop offset="0.25" style="stop-color:rgb(72.599792%,16.200256%,19.300842%);stop-opacity:1;"/>
<stop offset="0.28125" style="stop-color:rgb(72.424316%,16.000366%,19.198608%);stop-opacity:1;"/>
<stop offset="0.3125" style="stop-color:rgb(72.276306%,15.802002%,19.198608%);stop-opacity:1;"/>
<stop offset="0.34375" style="stop-color:rgb(72.10083%,15.602112%,19.099426%);stop-opacity:1;"/>
<stop offset="0.375" style="stop-color:rgb(71.90094%,15.400696%,18.901062%);stop-opacity:1;"/>
<stop offset="0.40625" style="stop-color:rgb(71.70105%,15.299988%,18.701172%);stop-opacity:1;"/>
<stop offset="0.4375" style="stop-color:rgb(71.502686%,15.299988%,18.502808%);stop-opacity:1;"/>
<stop offset="0.46875" style="stop-color:rgb(71.302795%,15.200806%,18.302917%);stop-opacity:1;"/>
<stop offset="0.5" style="stop-color:rgb(71.101379%,15.000916%,18.101501%);stop-opacity:1;"/>
<stop offset="0.53125" style="stop-color:rgb(70.901489%,14.801025%,17.999268%);stop-opacity:1;"/>
<stop offset="0.5625" style="stop-color:rgb(70.703125%,14.602661%,17.999268%);stop-opacity:1;"/>
<stop offset="0.59375" style="stop-color:rgb(70.503235%,14.402771%,17.900085%);stop-opacity:1;"/>
<stop offset="0.625" style="stop-color:rgb(70.301819%,14.201355%,17.701721%);stop-opacity:1;"/>
<stop offset="0.65625" style="stop-color:rgb(70.101929%,14.001465%,17.526245%);stop-opacity:1;"/>
<stop offset="0.6875" style="stop-color:rgb(69.903564%,13.803101%,17.376709%);stop-opacity:1;"/>
<stop offset="0.71875" style="stop-color:rgb(69.703674%,13.700867%,17.202759%);stop-opacity:1;"/>
<stop offset="0.75" style="stop-color:rgb(69.502258%,13.699341%,17.001343%);stop-opacity:1;"/>
<stop offset="0.78125" style="stop-color:rgb(69.302368%,13.600159%,16.899109%);stop-opacity:1;"/>
<stop offset="0.8125" style="stop-color:rgb(69.104004%,13.40332%,16.899109%);stop-opacity:1;"/>
<stop offset="0.84375" style="stop-color:rgb(68.904114%,13.20343%,16.801453%);stop-opacity:1;"/>
<stop offset="0.875" style="stop-color:rgb(68.702698%,13.002014%,16.603088%);stop-opacity:1;"/>
<stop offset="0.90625" style="stop-color:rgb(68.502808%,12.802124%,16.403198%);stop-opacity:1;"/>
<stop offset="0.9375" style="stop-color:rgb(68.304443%,12.60376%,16.204834%);stop-opacity:1;"/>
<stop offset="0.96875" style="stop-color:rgb(68.104553%,12.428284%,16.004944%);stop-opacity:1;"/>
<stop offset="1" style="stop-color:rgb(67.903137%,12.275696%,15.803528%);stop-opacity:1;"/>
</linearGradient>
<clipPath id="clip47">
  <path d="M 180.445312 349.300781 L 444.707031 349.300781 L 444.707031 589.570312 L 180.445312 589.570312 Z M 180.445312 349.300781 "/>
</clipPath>
<clipPath id="clip48">
  <path d="M 444.707031 469.433594 C 444.707031 535.792969 385.539062 589.570312 312.578125 589.570312 C 239.613281 589.570312 180.445312 535.792969 180.445312 469.433594 C 180.445312 403.078125 239.613281 349.300781 312.578125 349.300781 C 385.539062 349.300781 444.707031 403.078125 444.707031 469.433594 Z M 444.707031 469.433594 "/>
</clipPath>
<clipPath id="clip49">
  <path d="M 444.707031 469.433594 C 444.707031 535.792969 385.539062 589.570312 312.578125 589.570312 C 239.613281 589.570312 180.445312 535.792969 180.445312 469.433594 C 180.445312 403.078125 239.613281 349.300781 312.578125 349.300781 C 385.539062 349.300781 444.707031 403.078125 444.707031 469.433594 "/>
</clipPath>
<clipPath id="clip50">
  <path d="M 446.816406 349.300781 L 180.445312 346.953125 L 178.335938 589.570312 L 444.707031 591.917969 Z M 446.816406 349.300781 "/>
</clipPath>
<linearGradient id="linear10" gradientUnits="userSpaceOnUse" x1="-0.0482222" y1="0" x2="0.663405" y2="0" gradientTransform="matrix(-3.004133,340.882803,-340.832934,-3.004572,313.497589,364.582584)">
<stop offset="0" style="stop-color:rgb(75.299072%,18.399048%,21.598816%);stop-opacity:1;"/>
<stop offset="0.125" style="stop-color:rgb(75.299072%,18.399048%,21.598816%);stop-opacity:1;"/>
<stop offset="0.15625" style="stop-color:rgb(75.19989%,18.299866%,21.499634%);stop-opacity:1;"/>
<stop offset="0.1875" style="stop-color:rgb(75.003052%,18.103027%,21.302795%);stop-opacity:1;"/>
<stop offset="0.21875" style="stop-color:rgb(74.801636%,17.901611%,21.102905%);stop-opacity:1;"/>
<stop offset="0.25" style="stop-color:rgb(74.60022%,17.700195%,20.899963%);stop-opacity:1;"/>
<stop offset="0.28125" style="stop-color:rgb(74.40033%,17.524719%,20.700073%);stop-opacity:1;"/>
<stop offset="0.3125" style="stop-color:rgb(74.201965%,17.376709%,20.501709%);stop-opacity:1;"/>
<stop offset="0.34375" style="stop-color:rgb(74.002075%,17.201233%,20.401001%);stop-opacity:1;"/>
<stop offset="0.375" style="stop-color:rgb(73.799133%,16.999817%,20.399475%);stop-opacity:1;"/>
<stop offset="0.40625" style="stop-color:rgb(73.599243%,16.899109%,20.300293%);stop-opacity:1;"/>
<stop offset="0.4375" style="stop-color:rgb(73.400879%,16.899109%,20.100403%);stop-opacity:1;"/>
<stop offset="0.46875" style="stop-color:rgb(73.200989%,16.799927%,19.900513%);stop-opacity:1;"/>
<stop offset="0.5" style="stop-color:rgb(72.999573%,16.598511%,19.699097%);stop-opacity:1;"/>
<stop offset="0.53125" style="stop-color:rgb(72.799683%,16.398621%,19.499207%);stop-opacity:1;"/>
<stop offset="0.5625" style="stop-color:rgb(72.599792%,16.200256%,19.300842%);stop-opacity:1;"/>
<stop offset="0.59375" style="stop-color:rgb(72.424316%,16.000366%,19.200134%);stop-opacity:1;"/>
<stop offset="0.625" style="stop-color:rgb(72.273254%,15.79895%,19.197083%);stop-opacity:1;"/>
<stop offset="0.65625" style="stop-color:rgb(72.097778%,15.59906%,19.0979%);stop-opacity:1;"/>
<stop offset="0.6875" style="stop-color:rgb(71.899414%,15.39917%,18.899536%);stop-opacity:1;"/>
<stop offset="0.71875" style="stop-color:rgb(71.699524%,15.299988%,18.699646%);stop-opacity:1;"/>
<stop offset="0.75" style="stop-color:rgb(71.498108%,15.298462%,18.49823%);stop-opacity:1;"/>
<stop offset="0.78125" style="stop-color:rgb(71.298218%,15.197754%,18.29834%);stop-opacity:1;"/>
<stop offset="0.8125" style="stop-color:rgb(71.098328%,14.99939%,18.09845%);stop-opacity:1;"/>
<stop offset="0.84375" style="stop-color:rgb(70.898438%,14.7995%,17.999268%);stop-opacity:1;"/>
<stop offset="0.875" style="stop-color:rgb(70.697021%,14.596558%,17.997742%);stop-opacity:1;"/>
<stop offset="0.90625" style="stop-color:rgb(70.497131%,14.396667%,17.897034%);stop-opacity:1;"/>
<stop offset="0.9375" style="stop-color:rgb(70.298767%,14.198303%,17.698669%);stop-opacity:1;"/>
<stop offset="0.96875" style="stop-color:rgb(70.097351%,13.998413%,17.523193%);stop-opacity:1;"/>
<stop offset="1" style="stop-color:rgb(69.897461%,13.798523%,17.373657%);stop-opacity:1;"/>
</linearGradient>
<clipPath id="clip51">
  <path d="M 757.011719 301.246094 L 1021.269531 301.246094 L 1021.269531 541.515625 L 757.011719 541.515625 Z M 757.011719 301.246094 "/>
</clipPath>
<clipPath id="clip52">
  <path d="M 757.011719 421.382812 C 757.011719 487.738281 816.179688 541.515625 889.140625 541.515625 C 962.105469 541.515625 1021.269531 487.738281 1021.269531 421.382812 C 1021.269531 355.023438 962.105469 301.246094 889.140625 301.246094 C 816.179688 301.246094 757.011719 355.023438 757.011719 421.382812 Z M 757.011719 421.382812 "/>
</clipPath>
<clipPath id="clip53">
  <path d="M 757.011719 421.382812 C 757.011719 487.738281 816.179688 541.515625 889.140625 541.515625 C 962.105469 541.515625 1021.269531 487.738281 1021.269531 421.382812 C 1021.269531 355.023438 962.105469 301.246094 889.140625 301.246094 C 816.179688 301.246094 757.011719 355.023438 757.011719 421.382812 "/>
</clipPath>
<clipPath id="clip54">
  <path d="M 754.902344 301.246094 L 1021.269531 298.898438 L 1023.382812 541.515625 L 757.011719 543.863281 Z M 754.902344 301.246094 "/>
</clipPath>
<linearGradient id="linear11" gradientUnits="userSpaceOnUse" x1="-0.206595" y1="0" x2="0.505027" y2="0" gradientTransform="matrix(3.002944,340.884022,340.834154,-3.003384,888.697214,370.515735)">
<stop offset="0" style="stop-color:rgb(75.299072%,18.399048%,21.598816%);stop-opacity:1;"/>
<stop offset="0.25" style="stop-color:rgb(75.299072%,18.399048%,21.598816%);stop-opacity:1;"/>
<stop offset="0.3125" style="stop-color:rgb(75.299072%,18.399048%,21.598816%);stop-opacity:1;"/>
<stop offset="0.34375" style="stop-color:rgb(75.198364%,18.29834%,21.498108%);stop-opacity:1;"/>
<stop offset="0.375" style="stop-color:rgb(74.996948%,18.09845%,21.298218%);stop-opacity:1;"/>
<stop offset="0.40625" style="stop-color:rgb(74.797058%,17.999268%,21.199036%);stop-opacity:1;"/>
<stop offset="0.4375" style="stop-color:rgb(74.598694%,17.999268%,21.199036%);stop-opacity:1;"/>
<stop offset="0.46875" style="stop-color:rgb(74.398804%,17.89856%,21.098328%);stop-opacity:1;"/>
<stop offset="0.5" style="stop-color:rgb(74.197388%,17.698669%,20.898438%);stop-opacity:1;"/>
<stop offset="0.53125" style="stop-color:rgb(73.997498%,17.523193%,20.698547%);stop-opacity:1;"/>
<stop offset="0.5625" style="stop-color:rgb(73.799133%,17.373657%,20.500183%);stop-opacity:1;"/>
<stop offset="0.59375" style="stop-color:rgb(73.599243%,17.199707%,20.300293%);stop-opacity:1;"/>
<stop offset="0.625" style="stop-color:rgb(73.397827%,16.998291%,20.098877%);stop-opacity:1;"/>
<stop offset="0.65625" style="stop-color:rgb(73.197937%,16.798401%,19.999695%);stop-opacity:1;"/>
<stop offset="0.6875" style="stop-color:rgb(72.999573%,16.600037%,19.999695%);stop-opacity:1;"/>
<stop offset="0.71875" style="stop-color:rgb(72.799683%,16.499329%,19.898987%);stop-opacity:1;"/>
<stop offset="0.75" style="stop-color:rgb(72.598267%,16.497803%,19.699097%);stop-opacity:1;"/>
<stop offset="0.78125" style="stop-color:rgb(72.424316%,16.398621%,19.499207%);stop-opacity:1;"/>
<stop offset="0.8125" style="stop-color:rgb(72.27478%,16.200256%,19.300842%);stop-opacity:1;"/>
<stop offset="0.84375" style="stop-color:rgb(72.10083%,16.000366%,19.100952%);stop-opacity:1;"/>
<stop offset="0.875" style="stop-color:rgb(71.899414%,15.79895%,18.899536%);stop-opacity:1;"/>
<stop offset="0.90625" style="stop-color:rgb(71.699524%,15.59906%,18.798828%);stop-opacity:1;"/>
<stop offset="0.9375" style="stop-color:rgb(71.50116%,15.400696%,18.798828%);stop-opacity:1;"/>
<stop offset="0.96875" style="stop-color:rgb(71.30127%,15.200806%,18.699646%);stop-opacity:1;"/>
<stop offset="1" style="stop-color:rgb(71.099854%,14.99939%,18.499756%);stop-opacity:1;"/>
</linearGradient>
<clipPath id="clip55">
  <path d="M 636.894531 481.449219 L 732.988281 481.449219 L 732.988281 518 L 636.894531 518 Z M 636.894531 481.449219 "/>
</clipPath>
<clipPath id="clip56">
  <path d="M 684.941406 517.582031 C 669.925781 517.582031 654.910156 512.75 641.773438 503.128906 C 636.472656 499.234375 635.300781 491.679688 639.242188 486.328125 C 643.136719 481.027344 650.6875 479.851562 656.039062 483.796875 C 673.585938 496.652344 696.296875 496.652344 713.84375 483.796875 C 719.195312 479.851562 726.75 480.980469 730.640625 486.328125 C 734.582031 491.679688 733.410156 499.234375 728.109375 503.128906 C 714.972656 512.75 699.957031 517.582031 684.941406 517.582031 Z M 684.941406 517.582031 "/>
</clipPath>
<clipPath id="clip57">
  <path d="M 684.941406 517.582031 C 669.925781 517.582031 654.910156 512.75 641.773438 503.128906 C 636.472656 499.234375 635.300781 491.679688 639.242188 486.328125 C 643.136719 481.027344 650.6875 479.851562 656.039062 483.796875 C 673.585938 496.652344 696.296875 496.652344 713.84375 483.796875 C 719.195312 479.851562 726.75 480.980469 730.640625 486.328125 C 734.582031 491.679688 733.410156 499.234375 728.109375 503.128906 C 714.972656 512.75 699.957031 517.582031 684.941406 517.582031 "/>
</clipPath>
<clipPath id="clip58">
  <path d="M 805.058594 337.285156 L 877.128906 337.285156 L 877.128906 409.367188 L 805.058594 409.367188 Z M 805.058594 337.285156 "/>
</clipPath>
<clipPath id="clip59">
  <path d="M 817.070312 409.367188 C 810.457031 409.367188 805.058594 403.972656 805.058594 397.355469 C 805.058594 390.738281 810.457031 385.339844 817.070312 385.339844 C 836.964844 385.339844 853.105469 369.148438 853.105469 349.300781 C 853.105469 342.683594 858.503906 337.285156 865.117188 337.285156 C 871.734375 337.285156 877.128906 342.683594 877.128906 349.300781 C 877.128906 382.429688 850.195312 409.367188 817.070312 409.367188 Z M 817.070312 409.367188 "/>
</clipPath>
<clipPath id="clip60">
  <path d="M 817.070312 409.367188 C 810.457031 409.367188 805.058594 403.972656 805.058594 397.355469 C 805.058594 390.738281 810.457031 385.339844 817.070312 385.339844 C 836.964844 385.339844 853.105469 369.148438 853.105469 349.300781 C 853.105469 342.683594 858.503906 337.285156 865.117188 337.285156 C 871.734375 337.285156 877.128906 342.683594 877.128906 349.300781 C 877.128906 382.429688 850.195312 409.367188 817.070312 409.367188 "/>
</clipPath>
<clipPath id="clip61">
  <path d="M 324.589844 385.339844 L 396.660156 385.339844 L 396.660156 457.421875 L 324.589844 457.421875 Z M 324.589844 385.339844 "/>
</clipPath>
<clipPath id="clip62">
  <path d="M 384.648438 457.421875 C 351.519531 457.421875 324.589844 430.484375 324.589844 397.355469 C 324.589844 390.738281 329.984375 385.339844 336.601562 385.339844 C 343.214844 385.339844 348.613281 390.738281 348.613281 397.355469 C 348.613281 417.25 364.753906 433.394531 384.648438 433.394531 C 391.261719 433.394531 396.660156 438.792969 396.660156 445.40625 C 396.660156 452.023438 391.261719 457.421875 384.648438 457.421875 Z M 384.648438 457.421875 "/>
</clipPath>
<clipPath id="clip63">
  <path d="M 384.648438 457.421875 C 351.519531 457.421875 324.589844 430.484375 324.589844 397.355469 C 324.589844 390.738281 329.984375 385.339844 336.601562 385.339844 C 343.214844 385.339844 348.613281 390.738281 348.613281 397.355469 C 348.613281 417.25 364.753906 433.394531 384.648438 433.394531 C 391.261719 433.394531 396.660156 438.792969 396.660156 445.40625 C 396.660156 452.023438 391.261719 457.421875 384.648438 457.421875 "/>
</clipPath>
<clipPath id="clip64">
  <path d="M 0.269531 205.136719 L 1189.4375 205.136719 L 1189.4375 1586.695312 L 0.269531 1586.695312 Z M 0.269531 205.136719 "/>
</clipPath>
<clipPath id="clip65">
  <path d="M 731.019531 1538.640625 L 456.71875 1538.640625 C 215.542969 1538.640625 48.316406 1339.335938 48.316406 1094.140625 L 132.398438 313.257812 C 135.027344 285.242188 164.257812 253.191406 192.457031 253.191406 L 997.246094 253.191406 C 1025.445312 253.191406 1054.679688 285.242188 1057.304688 313.257812 L 1141.390625 1094.140625 C 1141.390625 1334.410156 972.191406 1538.640625 731.019531 1538.640625 Z M 1105.355469 313.257812 C 1100.753906 264.359375 1053.410156 205.136719 997.246094 205.136719 L 192.457031 205.136719 C 136.292969 205.136719 88.902344 264.78125 84.351562 313.257812 L 0.269531 1094.140625 C 0.269531 1374.957031 196.492188 1586.695312 456.71875 1586.695312 L 732.988281 1586.695312 C 990.023438 1586.695312 1189.4375 1370.308594 1189.4375 1094.140625 Z M 1105.355469 313.257812 "/>
</clipPath>
<clipPath id="clip66">
  <path d="M 731.019531 1538.640625 L 456.71875 1538.640625 C 215.542969 1538.640625 48.316406 1339.335938 48.316406 1094.140625 L 132.398438 313.257812 C 135.027344 285.242188 164.257812 253.191406 192.457031 253.191406 L 997.246094 253.191406 C 1025.445312 253.191406 1054.679688 285.242188 1057.304688 313.257812 L 1141.390625 1094.140625 C 1141.390625 1334.410156 972.191406 1538.640625 731.019531 1538.640625 Z M 1105.355469 313.257812 C 1100.753906 264.359375 1053.410156 205.136719 997.246094 205.136719 L 192.457031 205.136719 C 136.292969 205.136719 88.902344 264.78125 84.351562 313.257812 L 0.269531 1094.140625 C 0.269531 1374.957031 196.492188 1586.695312 456.71875 1586.695312 L 732.988281 1586.695312 C 990.023438 1586.695312 1189.4375 1370.308594 1189.4375 1094.140625 L 1105.355469 313.257812 "/>
</clipPath>
<clipPath id="clip67">
  <path d="M 2.007812 159.476562 L -52.796875 1584.675781 L 1187.699219 1632.355469 L 1242.503906 207.15625 Z M 2.007812 159.476562 "/>
</clipPath>
<linearGradient id="linear12" gradientUnits="userSpaceOnUse" x1="0.801563" y1="0" x2="4.773498" y2="0" gradientTransform="matrix(312.3062,12.013534,-12.011776,312.351891,-275.520179,857.496289)">
<stop offset="0" style="stop-color:rgb(90.99884%,91.398621%,91.799927%);stop-opacity:1;"/>
<stop offset="0.015625" style="stop-color:rgb(90.99884%,91.398621%,91.799927%);stop-opacity:1;"/>
<stop offset="0.0234375" style="stop-color:rgb(90.901184%,91.300964%,91.700745%);stop-opacity:1;"/>
<stop offset="0.03125" style="stop-color:rgb(90.699768%,91.099548%,91.499329%);stop-opacity:1;"/>
<stop offset="0.0625" style="stop-color:rgb(90.402222%,90.802002%,91.201782%);stop-opacity:1;"/>
<stop offset="0.125" style="stop-color:rgb(90.202332%,90.602112%,91.001892%);stop-opacity:1;"/>
<stop offset="0.25" style="stop-color:rgb(90.19928%,90.59906%,90.99884%);stop-opacity:1;"/>
<stop offset="0.5" style="stop-color:rgb(90.19928%,90.59906%,90.99884%);stop-opacity:1;"/>
<stop offset="1" style="stop-color:rgb(90.19928%,90.59906%,90.99884%);stop-opacity:1;"/>
</linearGradient>
</defs>
<g id="surface1">
<g clip-path="url(#clip1)" clip-rule="nonzero">
<g clip-path="url(#clip2)" clip-rule="nonzero">
<g clip-path="url(#clip3)" clip-rule="nonzero">
<path style=" stroke:none;fill-rule:nonzero;fill:rgb(94.509888%,94.898987%,94.898987%);fill-opacity:1;" d="M 48.316406 253.191406 L 48.316406 1538.640625 L 1141.390625 1538.640625 L 1141.390625 253.191406 Z M 48.316406 253.191406 "/>
</g>
</g>
</g>
<g clip-path="url(#clip4)" clip-rule="nonzero">
<g clip-path="url(#clip5)" clip-rule="nonzero">
<path style=" stroke:none;fill-rule:nonzero;fill:url(#linear0);" d="M 0.269531 97.015625 L 0.269531 433.394531 L 301.785156 433.394531 L 301.785156 97.015625 Z M 0.269531 97.015625 "/>
</g>
</g>
<g clip-path="url(#clip6)" clip-rule="nonzero">
<g clip-path="url(#clip7)" clip-rule="nonzero">
<g clip-path="url(#clip8)" clip-rule="nonzero">
<g clip-path="url(#clip9)" clip-rule="nonzero">
<path style=" stroke:none;fill-rule:nonzero;fill:url(#linear1);" d="M 212.851562 82.4375 L -42.09375 261.472656 L 141.613281 523.152344 L 396.558594 344.117188 Z M 212.851562 82.4375 "/>
</g>
</g>
</g>
</g>
<g clip-path="url(#clip10)" clip-rule="nonzero">
<g clip-path="url(#clip11)" clip-rule="nonzero">
<g clip-path="url(#clip12)" clip-rule="nonzero">
<path style=" stroke:none;fill-rule:nonzero;fill:url(#linear2);" d="M 48.316406 481.449219 L 48.316406 1538.640625 L 1141.390625 1538.640625 L 1141.390625 481.449219 Z M 48.316406 481.449219 "/>
</g>
</g>
</g>
<g clip-path="url(#clip13)" clip-rule="nonzero">
<g clip-path="url(#clip14)" clip-rule="nonzero">
<g clip-path="url(#clip15)" clip-rule="nonzero">
<path style=" stroke:none;fill-rule:nonzero;fill:url(#linear3);" d="M 576.835938 721.25 L 576.835938 1022.058594 L 877.128906 1022.058594 L 877.128906 721.25 Z M 576.835938 721.25 "/>
</g>
</g>
</g>
<g clip-path="url(#clip16)" clip-rule="nonzero">
<g clip-path="url(#clip17)" clip-rule="nonzero">
<g clip-path="url(#clip18)" clip-rule="nonzero">
<path style=" stroke:none;fill-rule:nonzero;fill:rgb(88.238525%,36.079407%,38.819885%);fill-opacity:1;" d="M 130.242188 1061.804688 L 130.242188 1116.289062 L 184.855469 1116.289062 L 184.855469 1061.804688 Z M 130.242188 1061.804688 "/>
</g>
</g>
</g>
<g clip-path="url(#clip19)" clip-rule="nonzero">
<g clip-path="url(#clip20)" clip-rule="nonzero">
<g clip-path="url(#clip21)" clip-rule="nonzero">
<path style=" stroke:none;fill-rule:nonzero;fill:url(#linear4);" d="M 717.363281 1416.015625 L 717.363281 1470.546875 L 771.980469 1470.546875 L 771.980469 1416.015625 Z M 717.363281 1416.015625 "/>
</g>
</g>
</g>
<g clip-path="url(#clip22)" clip-rule="nonzero">
<g clip-path="url(#clip23)" clip-rule="nonzero">
<g clip-path="url(#clip24)" clip-rule="nonzero">
<path style=" stroke:none;fill-rule:nonzero;fill:rgb(88.238525%,36.079407%,38.819885%);fill-opacity:1;" d="M 608.132812 1334.269531 L 608.132812 1388.753906 L 662.746094 1388.753906 L 662.746094 1334.269531 Z M 608.132812 1334.269531 "/>
</g>
</g>
</g>
<g clip-path="url(#clip25)" clip-rule="nonzero">
<g clip-path="url(#clip26)" clip-rule="nonzero">
<g clip-path="url(#clip27)" clip-rule="nonzero">
<path style=" stroke:none;fill-rule:nonzero;fill:url(#linear5);" d="M 990.445312 966.449219 L 990.445312 1020.929688 L 1045.105469 1020.929688 L 1045.105469 966.449219 Z M 990.445312 966.449219 "/>
</g>
</g>
</g>
<g clip-path="url(#clip28)" clip-rule="nonzero">
<g clip-path="url(#clip29)" clip-rule="nonzero">
<g clip-path="url(#clip30)" clip-rule="nonzero">
<path style=" stroke:none;fill-rule:nonzero;fill:rgb(88.198853%,36.099243%,38.798523%);fill-opacity:1;" d="M 935.875 666.71875 L 935.875 721.25 L 990.445312 721.25 L 990.445312 666.71875 Z M 935.875 666.71875 "/>
</g>
</g>
</g>
<g clip-path="url(#clip31)" clip-rule="nonzero">
<g clip-path="url(#clip32)" clip-rule="nonzero">
<g clip-path="url(#clip33)" clip-rule="nonzero">
<path style=" stroke:none;fill-rule:nonzero;fill:rgb(88.238525%,36.079407%,38.819885%);fill-opacity:1;" d="M 485.246094 625.847656 L 485.246094 680.328125 L 539.863281 680.328125 L 539.863281 625.847656 Z M 485.246094 625.847656 "/>
</g>
</g>
</g>
<g clip-path="url(#clip34)" clip-rule="nonzero">
<g clip-path="url(#clip35)" clip-rule="nonzero">
<g clip-path="url(#clip36)" clip-rule="nonzero">
<path style=" stroke:none;fill-rule:nonzero;fill:url(#linear6);" d="M 120.386719 657.382812 L 120.386719 1058.097656 L 523.15625 1058.097656 L 523.15625 657.382812 Z M 120.386719 657.382812 "/>
</g>
</g>
</g>
<g clip-path="url(#clip37)" clip-rule="nonzero">
<g clip-path="url(#clip38)" clip-rule="nonzero">
<g clip-path="url(#clip39)" clip-rule="nonzero">
<path style=" stroke:none;fill-rule:nonzero;fill:url(#linear7);" d="M 204.46875 1094.140625 L 204.46875 1490.585938 L 600.859375 1490.585938 L 600.859375 1094.140625 Z M 204.46875 1094.140625 "/>
</g>
</g>
</g>
<g clip-path="url(#clip40)" clip-rule="nonzero">
<g clip-path="url(#clip41)" clip-rule="nonzero">
<g clip-path="url(#clip42)" clip-rule="nonzero">
<path style=" stroke:none;fill-rule:nonzero;fill:url(#linear8);" d="M 648.90625 986.015625 L 648.90625 1388.847656 L 1051.675781 1388.847656 L 1051.675781 986.015625 Z M 648.90625 986.015625 "/>
</g>
</g>
</g>
<g clip-path="url(#clip43)" clip-rule="nonzero">
<g clip-path="url(#clip44)" clip-rule="nonzero">
<g clip-path="url(#clip45)" clip-rule="nonzero">
<g clip-path="url(#clip46)" clip-rule="nonzero">
<path style=" stroke:none;fill-rule:nonzero;fill:url(#linear9);" d="M 562.707031 433.414062 L 829.0625 431.066406 L 831.199219 673.648438 L 564.84375 675.992188 Z M 562.707031 433.414062 "/>
</g>
</g>
</g>
</g>
<g clip-path="url(#clip47)" clip-rule="nonzero">
<g clip-path="url(#clip48)" clip-rule="nonzero">
<g clip-path="url(#clip49)" clip-rule="nonzero">
<g clip-path="url(#clip50)" clip-rule="nonzero">
<path style=" stroke:none;fill-rule:nonzero;fill:url(#linear10);" d="M 446.824219 349.320312 L 180.46875 346.96875 L 178.328125 589.550781 L 444.683594 591.898438 Z M 446.824219 349.320312 "/>
</g>
</g>
</g>
</g>
<g clip-path="url(#clip51)" clip-rule="nonzero">
<g clip-path="url(#clip52)" clip-rule="nonzero">
<g clip-path="url(#clip53)" clip-rule="nonzero">
<g clip-path="url(#clip54)" clip-rule="nonzero">
<path style=" stroke:none;fill-rule:nonzero;fill:url(#linear11);" d="M 754.894531 301.265625 L 1021.25 298.917969 L 1023.386719 541.496094 L 757.03125 543.84375 Z M 754.894531 301.265625 "/>
</g>
</g>
</g>
</g>
<g clip-path="url(#clip55)" clip-rule="nonzero">
<g clip-path="url(#clip56)" clip-rule="nonzero">
<g clip-path="url(#clip57)" clip-rule="nonzero">
<path style=" stroke:none;fill-rule:nonzero;fill:rgb(80.778503%,26.669312%,29.798889%);fill-opacity:1;" d="M 635.347656 477.929688 L 634.546875 517.582031 L 734.535156 519.507812 L 735.335938 479.851562 Z M 635.347656 477.929688 "/>
</g>
</g>
</g>
<g clip-path="url(#clip58)" clip-rule="nonzero">
<g clip-path="url(#clip59)" clip-rule="nonzero">
<g clip-path="url(#clip60)" clip-rule="nonzero">
<path style=" stroke:none;fill-rule:nonzero;fill:rgb(80.778503%,26.669312%,29.798889%);fill-opacity:1;" d="M 805.105469 335.878906 L 803.652344 409.320312 L 877.082031 410.773438 L 878.539062 337.332031 Z M 805.105469 335.878906 "/>
</g>
</g>
</g>
<g clip-path="url(#clip61)" clip-rule="nonzero">
<g clip-path="url(#clip62)" clip-rule="nonzero">
<g clip-path="url(#clip63)" clip-rule="nonzero">
<path style=" stroke:none;fill-rule:nonzero;fill:rgb(80.778503%,26.669312%,29.798889%);fill-opacity:1;" d="M 324.636719 383.933594 L 323.179688 457.375 L 396.613281 458.828125 L 398.066406 385.386719 Z M 324.636719 383.933594 "/>
</g>
</g>
</g>
<g clip-path="url(#clip64)" clip-rule="nonzero">
<g clip-path="url(#clip65)" clip-rule="nonzero">
<g clip-path="url(#clip66)" clip-rule="nonzero">
<g clip-path="url(#clip67)" clip-rule="nonzero">
<path style=" stroke:none;fill-rule:nonzero;fill:url(#linear12);" d="M 2.027344 159.460938 L -52.78125 1584.652344 L 1187.679688 1632.371094 L 1242.488281 207.179688 Z M 2.027344 159.460938 "/>
</g>
</g>
</g>
</g>
</g>
</svg>
